<svg xmlns="http://www.w3.org/2000/svg" viewBox="0 0 500 500"><g id="freepik--Floor--inject-2"><path id="freepik--floor--inject-2" d="M82.09,251c-92.74,53.54-92.74,140.34,0,193.88s243.08,53.54,335.82,0,92.74-140.34,0-193.88S174.83,197.46,82.09,251Z" style="fill:#f5f5f5"></path></g><g id="freepik--Background--inject-2"><g id="freepik--background--inject-2"><rect x="50.93" y="103.6" width="398.14" height="206.64" style="fill:#3F3F3F"></rect><rect x="50.93" y="103.6" width="398.14" height="206.64" style="opacity:0.15"></rect><path d="M449.07,179.24a451.72,451.72,0,0,0-398.14,0v131H449.07Z" style="fill:#3F3F3F"></path><polygon points="449.07 203.56 425.4 203.56 425.4 217.71 408.8 217.71 408.8 184.35 384.48 184.35 384.48 207.1 370.46 207.1 370.46 145.9 365.54 145.9 365.54 138.57 359.57 138.57 359.57 123.45 358.36 123.45 358.36 138.57 341.17 138.57 341.17 145.9 336.25 145.9 336.25 235.68 324.14 235.68 324.14 191.53 304.96 191.53 304.96 208.63 290.26 208.63 290.26 177.15 263.56 177.15 263.56 231.24 245.33 231.24 245.33 172 218.63 172 218.63 227.03 204.56 227.03 204.56 159.78 200.07 159.78 200.07 153.1 194.65 153.1 194.65 139.33 193.54 139.33 193.54 153.1 177.89 153.1 177.89 159.78 173.41 159.78 173.41 217.71 162.38 217.71 162.38 184.35 144.91 184.35 144.91 217.71 131.53 217.71 131.53 196.79 107.21 196.79 107.21 239.52 90.61 239.52 90.61 167.38 66.3 167.38 66.3 207.1 50.93 207.1 50.95 310.19 204.57 310.25 204.57 310.19 370.48 310.25 370.48 310.19 449.07 310.22 449.07 203.56"></polygon></g></g><g id="freepik--Spotlights--inject-2"><g id="freepik--Lights--inject-2"><path d="M383.92,31.42l12.6,1.06,3.65,2.76,4.16,14.42,3.1,31.14.19,2,1.48-1.37,23.56-21.87L445,60.68l3.91,2.73,4.16,14.41,34,257.79H487l.15,1.13c5.25,39.77-19.8,78.79-68.75,107.05C373.42,469.75,313.62,484,250,484S126.59,469.75,81.63,443.79c-48.94-28.26-74-67.28-68.75-107l.14-1.13h0L46.92,77.82l4.16-14.41L55,60.68l12.33-1.11L89.56,81.41,91,82.8l.28-2,4.41-31.16,4.16-14.41,3.91-2.73,12.36-1.12L249.33,151.35l.67.6.67-.6L383.92,31.42m-.35-1L250,150.61,116.43,30.39l-13.06,1.18L99,34.65,94.68,49.47,90.26,80.7,67.69,58.53,54.63,59.71l-4.41,3.08L45.94,77.61l-34.06,259h0c-5.11,38.72,18,78.44,69.24,108.05C127.77,471.58,188.89,485,250,485s122.24-13.46,168.87-40.38c51.28-29.61,74.36-69.33,69.24-108h.09l-34.14-259-4.28-14.82-4.41-3.08-13.06-1.18L408.42,80.7l-3.1-31.23L401,34.65l-4.15-3.14-13.32-1.12Z" style="fill:#e0e0e0"></path><g id="freepik--lights--inject-2"><polygon points="97.71 21.77 95.52 20.51 95.52 29.12 97.71 30.38 97.71 21.77" style="fill:#263238"></polygon><polygon points="97.71 21.77 95.52 20.51 95.52 29.12 97.71 30.38 97.71 21.77" style="opacity:0.1"></polygon><polygon points="106.94 32.42 104.6 41.97 113.35 46.43 117.46 32.34 106.94 32.42" style="fill:#455a64"></polygon><polygon points="102.31 43.8 110.68 49.34 110.78 50.02 97.69 53.01 95.9 44.06 102.31 43.8" style="fill:#37474f"></polygon><polygon points="102.21 43.13 110.68 49.34 97.59 52.33 95.9 44.06 102.21 43.13" style="fill:#455a64"></polygon><path d="M91.29,26.41a10.52,10.52,0,0,0-4.75,8.22,3.3,3.3,0,0,0,1.38,3l5.61,3.24a3.31,3.31,0,0,0,3.34-.33,10.48,10.48,0,0,0,4.74-8.22,3.33,3.33,0,0,0-1.38-3l-5.61-3.24A3.32,3.32,0,0,0,91.29,26.41Z" style="fill:#263238"></path><path d="M94.63,27.4A12.31,12.31,0,0,0,89.07,37a3.87,3.87,0,0,0,1.61,3.57l6.57,3.79a3.86,3.86,0,0,0,3.91-.38,12.28,12.28,0,0,0,5.56-9.63,3.88,3.88,0,0,0-1.62-3.58L98.53,27A3.86,3.86,0,0,0,94.63,27.4Z" style="fill:#455a64"></path><path d="M101.16,31.18a12.28,12.28,0,0,0-5.56,9.63c0,3.55,2.49,5,5.56,3.21a12.28,12.28,0,0,0,5.56-9.63C106.72,30.84,104.23,29.4,101.16,31.18Z" style="fill:#e0e0e0"></path><path d="M101.16,32.11a10.52,10.52,0,0,0-4.75,8.23c0,3,2.13,4.26,4.75,2.75a10.49,10.49,0,0,0,4.75-8.23C105.91,31.83,103.79,30.6,101.16,32.11Z" style="fill:#fff"></path><polygon points="95.36 33.69 99.57 34.79 95.29 49.61 94.68 49.47 93.68 41.63 95.36 33.69" style="fill:#37474f"></polygon><polygon points="95.36 33.69 98.96 34.65 94.68 49.47 93.07 41.49 95.36 33.69" style="fill:#263238"></polygon><polygon points="99.45 31.3 103.47 32.18 116.52 31 116.43 30.39 105.7 30.37 99.36 30.68 99.45 31.3" style="fill:#37474f"></polygon><polygon points="99.36 30.68 103.37 31.57 116.43 30.39 105.61 29.76 99.36 30.68" style="fill:#263238"></polygon><polygon points="88.94 37.01 86.75 35.74 86.75 25.57 95.52 20.51 97.71 21.77 88.94 26.83 88.94 37.01" style="fill:#263238"></polygon><path d="M87.85,36.37a2.47,2.47,0,0,1-1.1-2V25.57l8.77-5.06,2.19,1.26-8.77,5.06v8.83C88.94,36.4,88.45,36.72,87.85,36.37Z" style="opacity:0.05"></path><path d="M87.85,35.5a1.32,1.32,0,0,1-.61-1c0-.38.27-.54.61-.35a1.37,1.37,0,0,1,.6,1C88.45,35.54,88.18,35.7,87.85,35.5Z" style="fill:#fff"></path><polygon points="48.97 49.91 46.77 48.65 46.77 57.26 48.97 58.52 48.97 49.91" style="fill:#263238"></polygon><polygon points="48.97 49.91 46.77 48.65 46.77 57.26 48.97 58.52 48.97 49.91" style="opacity:0.1"></polygon><polygon points="58.2 60.56 55.86 70.11 64.61 74.57 68.72 60.48 58.2 60.56" style="fill:#455a64"></polygon><polygon points="53.57 71.95 61.94 77.48 62.04 78.16 48.95 81.15 47.16 72.2 53.57 71.95" style="fill:#37474f"></polygon><polygon points="53.47 71.27 61.94 77.48 48.85 80.47 47.16 72.2 53.47 71.27" style="fill:#455a64"></polygon><path d="M42.55,54.55a10.52,10.52,0,0,0-4.75,8.23,3.3,3.3,0,0,0,1.38,3l5.61,3.24a3.29,3.29,0,0,0,3.33-.32,10.49,10.49,0,0,0,4.75-8.23,3.33,3.33,0,0,0-1.38-3l-5.61-3.23A3.29,3.29,0,0,0,42.55,54.55Z" style="fill:#263238"></path><path d="M45.89,55.55a12.26,12.26,0,0,0-5.57,9.63,3.88,3.88,0,0,0,1.62,3.57l6.57,3.8a3.89,3.89,0,0,0,3.91-.39A12.28,12.28,0,0,0,58,62.53,3.86,3.86,0,0,0,56.36,59l-6.57-3.8A3.87,3.87,0,0,0,45.89,55.55Z" style="fill:#455a64"></path><path d="M52.42,59.32A12.3,12.3,0,0,0,46.86,69c0,3.55,2.49,5,5.56,3.21A12.28,12.28,0,0,0,58,62.53C58,59,55.49,57.55,52.42,59.32Z" style="fill:#e0e0e0"></path><path d="M52.42,60.26a10.49,10.49,0,0,0-4.75,8.22c0,3,2.13,4.26,4.75,2.75A10.52,10.52,0,0,0,57.17,63C57.17,60,55,58.74,52.42,60.26Z" style="fill:#fff"></path><polygon points="46.62 61.83 50.83 62.93 46.55 77.75 45.94 77.61 44.94 69.77 46.62 61.83" style="fill:#37474f"></polygon><polygon points="46.62 61.83 50.22 62.79 45.94 77.61 44.33 69.63 46.62 61.83" style="fill:#263238"></polygon><polygon points="50.71 59.44 54.72 60.32 67.78 59.15 67.69 58.53 56.95 58.52 50.62 58.82 50.71 59.44" style="fill:#37474f"></polygon><polygon points="50.62 58.82 54.63 59.71 67.69 58.53 56.86 57.9 50.62 58.82" style="fill:#263238"></polygon><polygon points="40.2 65.15 38.01 63.88 38.01 53.71 46.77 48.65 48.97 49.91 40.2 54.97 40.2 65.15" style="fill:#263238"></polygon><path d="M39.11,64.52a2.5,2.5,0,0,1-1.1-2V53.71l8.76-5.06L49,49.91,40.2,55V63.8C40.2,64.55,39.71,64.87,39.11,64.52Z" style="opacity:0.05"></path><path d="M39.11,63.64a1.32,1.32,0,0,1-.61-1c0-.38.27-.54.61-.35a1.37,1.37,0,0,1,.6,1C39.71,63.68,39.44,63.84,39.11,63.64Z" style="fill:#fff"></path></g><g id="freepik--lights--inject-2"><polygon points="402.29 21.77 404.48 20.51 404.48 29.12 402.29 30.38 402.29 21.77" style="fill:#263238"></polygon><polygon points="402.29 21.77 404.48 20.51 404.48 29.12 402.29 30.38 402.29 21.77" style="opacity:0.1"></polygon><polygon points="393.06 32.42 395.4 41.97 386.65 46.43 382.54 32.34 393.06 32.42" style="fill:#455a64"></polygon><polygon points="397.69 43.8 389.32 49.34 389.22 50.02 402.31 53.01 404.1 44.06 397.69 43.8" style="fill:#37474f"></polygon><polygon points="397.79 43.13 389.32 49.34 402.41 52.33 404.1 44.06 397.79 43.13" style="fill:#455a64"></polygon><path d="M408.71,26.41a10.52,10.52,0,0,1,4.75,8.22,3.3,3.3,0,0,1-1.38,3l-5.61,3.24a3.31,3.31,0,0,1-3.34-.33,10.48,10.48,0,0,1-4.74-8.22,3.33,3.33,0,0,1,1.38-3l5.61-3.24A3.32,3.32,0,0,1,408.71,26.41Z" style="fill:#263238"></path><path d="M405.37,27.4A12.31,12.31,0,0,1,410.93,37a3.87,3.87,0,0,1-1.61,3.57l-6.57,3.79a3.86,3.86,0,0,1-3.91-.38,12.28,12.28,0,0,1-5.56-9.63,3.88,3.88,0,0,1,1.62-3.58L401.47,27A3.86,3.86,0,0,1,405.37,27.4Z" style="fill:#455a64"></path><path d="M398.84,31.18a12.28,12.28,0,0,1,5.56,9.63c0,3.55-2.49,5-5.56,3.21a12.28,12.28,0,0,1-5.56-9.63C393.28,30.84,395.77,29.4,398.84,31.18Z" style="fill:#e0e0e0"></path><path d="M398.84,32.11a10.52,10.52,0,0,1,4.75,8.23c0,3-2.13,4.26-4.75,2.75a10.49,10.49,0,0,1-4.75-8.23C394.09,31.83,396.21,30.6,398.84,32.11Z" style="fill:#fff"></path><polygon points="404.64 33.69 400.43 34.79 404.71 49.61 405.32 49.47 406.32 41.63 404.64 33.69" style="fill:#37474f"></polygon><polygon points="404.64 33.69 401.04 34.65 405.32 49.47 406.93 41.49 404.64 33.69" style="fill:#263238"></polygon><polygon points="400.55 31.3 396.53 32.18 383.48 31 383.57 30.39 394.3 30.37 400.64 30.68 400.55 31.3" style="fill:#37474f"></polygon><polygon points="400.64 30.68 396.63 31.57 383.57 30.39 394.39 29.76 400.64 30.68" style="fill:#263238"></polygon><polygon points="411.06 37.01 413.25 35.74 413.25 25.57 404.48 20.51 402.29 21.77 411.06 26.83 411.06 37.01" style="fill:#263238"></polygon><path d="M412.15,36.37a2.47,2.47,0,0,0,1.1-2V25.57l-8.77-5.06-2.19,1.26,8.77,5.06v8.83C411.06,36.4,411.55,36.72,412.15,36.37Z" style="opacity:0.05"></path><path d="M412.15,35.5a1.32,1.32,0,0,0,.61-1c0-.38-.27-.54-.61-.35a1.37,1.37,0,0,0-.6,1C411.55,35.54,411.82,35.7,412.15,35.5Z" style="fill:#fff"></path><polygon points="451.04 49.91 453.23 48.65 453.23 57.26 451.04 58.52 451.04 49.91" style="fill:#263238"></polygon><polygon points="451.04 49.91 453.23 48.65 453.23 57.26 451.04 58.52 451.04 49.91" style="opacity:0.1"></polygon><polygon points="441.8 60.56 444.14 70.11 435.39 74.57 431.28 60.48 441.8 60.56" style="fill:#455a64"></polygon><polygon points="446.43 71.95 438.06 77.48 437.96 78.16 451.05 81.15 452.84 72.2 446.43 71.95" style="fill:#37474f"></polygon><polygon points="446.53 71.27 438.06 77.48 451.15 80.47 452.84 72.2 446.53 71.27" style="fill:#455a64"></polygon><path d="M457.45,54.55a10.52,10.52,0,0,1,4.75,8.23,3.3,3.3,0,0,1-1.38,3l-5.61,3.24a3.29,3.29,0,0,1-3.33-.32,10.49,10.49,0,0,1-4.75-8.23,3.33,3.33,0,0,1,1.38-3l5.61-3.23A3.29,3.29,0,0,1,457.45,54.55Z" style="fill:#263238"></path><path d="M454.11,55.55a12.26,12.26,0,0,1,5.57,9.63,3.88,3.88,0,0,1-1.62,3.57l-6.57,3.8a3.89,3.89,0,0,1-3.91-.39A12.28,12.28,0,0,1,442,62.53,3.86,3.86,0,0,1,443.64,59l6.57-3.8A3.87,3.87,0,0,1,454.11,55.55Z" style="fill:#455a64"></path><path d="M447.58,59.32A12.3,12.3,0,0,1,453.14,69c0,3.55-2.49,5-5.56,3.21A12.28,12.28,0,0,1,442,62.53C442,59,444.51,57.55,447.58,59.32Z" style="fill:#e0e0e0"></path><path d="M447.58,60.26a10.49,10.49,0,0,1,4.75,8.22c0,3-2.13,4.26-4.75,2.75A10.52,10.52,0,0,1,442.83,63C442.83,60,445,58.74,447.58,60.26Z" style="fill:#fff"></path><polygon points="453.38 61.83 449.17 62.93 453.45 77.75 454.06 77.61 455.06 69.77 453.38 61.83" style="fill:#37474f"></polygon><polygon points="453.38 61.83 449.78 62.79 454.06 77.61 455.67 69.63 453.38 61.83" style="fill:#263238"></polygon><polygon points="449.29 59.44 445.28 60.32 432.22 59.15 432.31 58.53 443.05 58.52 449.38 58.82 449.29 59.44" style="fill:#37474f"></polygon><polygon points="449.38 58.82 445.37 59.71 432.31 58.53 443.14 57.9 449.38 58.82" style="fill:#263238"></polygon><polygon points="459.8 65.15 461.99 63.88 461.99 53.71 453.23 48.65 451.04 49.91 459.8 54.97 459.8 65.15" style="fill:#263238"></polygon><path d="M460.89,64.52a2.5,2.5,0,0,0,1.1-2V53.71l-8.76-5.06L451,49.91,459.8,55V63.8C459.8,64.55,460.29,64.87,460.89,64.52Z" style="opacity:0.05"></path><path d="M460.89,63.64a1.32,1.32,0,0,0,.61-1c0-.38-.27-.54-.61-.35a1.37,1.37,0,0,0-.6,1C460.29,63.68,460.56,63.84,460.89,63.64Z" style="fill:#fff"></path></g></g></g><g id="freepik--Shadows--inject-2"><ellipse id="freepik--Shadow--inject-2" cx="225.64" cy="402.43" rx="47.13" ry="27.21" style="fill:#e0e0e0"></ellipse><ellipse id="freepik--shadow--inject-2" cx="171.13" cy="435.99" rx="47.13" ry="27.21" style="fill:#e0e0e0"></ellipse><polygon id="freepik--shadow--inject-2" points="275.05 372.58 344.07 332.72 469.92 405.33 400.89 445.2 275.05 372.58" style="fill:#e0e0e0"></polygon><path id="freepik--shadow--inject-2" d="M115.28,448.62,38.38,404.2a1.19,1.19,0,0,1,0-2.25l155.09-89.72a4.28,4.28,0,0,1,3.91,0l76.9,44.41a1.19,1.19,0,0,1,0,2.25L119.19,448.62A4.34,4.34,0,0,1,115.28,448.62Z" style="fill:#e0e0e0"></path><path id="freepik--shadow--inject-2" d="M409.47,384.65l54.27-30.78a1.2,1.2,0,0,0,0-2.27l-52.7-30.89a4.3,4.3,0,0,0-3.92,0l-54.27,30.78a1.2,1.2,0,0,0,0,2.27l52.7,30.9A4.35,4.35,0,0,0,409.47,384.65Z" style="fill:#e0e0e0"></path></g><g id="freepik--character-3--inject-2"><g id="freepik--Character--inject-2"><g id="freepik--Chair--inject-2"><path d="M363.26,357.53l8.18-47.15,5.17-.27-10.74,47.41h0a.68.68,0,0,1-.34.47,2,2,0,0,1-1.84.09.62.62,0,0,1-.41-.55Z" style="fill:#263238"></path><path d="M440.17,302.63h5.17l12.18,49h0a.62.62,0,0,1-.38.57,2.05,2.05,0,0,1-1.84,0,.68.68,0,0,1-.37-.45h0Z" style="fill:#37474f"></path><path d="M404.35,380l.23-52.81,5.17-.26L407,380h0a.73.73,0,0,1-.35.47,2,2,0,0,1-1.84.09.6.6,0,0,1-.4-.55Z" style="fill:#37474f"></path><path d="M411.9,286.2h5.18l8.29,52h0a.65.65,0,0,1-.38.57,2.08,2.08,0,0,1-1.85,0,.69.69,0,0,1-.36-.45h0Z" style="fill:#263238"></path><g id="freepik--chair--inject-2"><path d="M455.07,245.43a29.06,29.06,0,0,1,2.07,9.09c.59,7-1.77,29.54-3.18,39.63h0c-2,16.86-4.56,16.89-8.21,19.71-6.29,4.86-24.36,14.37-30.33,16.72-10.82,4.26-19.66-2.31-26.26-5.56a151.27,151.27,0,0,1-17.46-10.35c-1.65-1.2-2.5-2.41-2.49-3.69,0-.5,0-2.57,0-3.11,0-1.62,1.43-3.37,4.46-5.33,5.59-3.63,25.78-15.4,33.61-19.74a.06.06,0,0,1,.06-.06c6-3.66,9.65-28.5,13.82-41.72.08-.28.17-.56.27-.82l.21-.62c.27-.72.54-1.37.82-2" style="fill:#3F3F3F"></path><path d="M369.21,307.87c0-1.62,1.43-3.37,4.46-5.33,5.59-3.63,25.78-15.4,33.61-19.74a.06.06,0,0,1,.06-.06c6-3.66,9.65-28.5,13.82-41.72a24.81,24.81,0,0,1,.87-2.44,1.3,1.3,0,0,1,.08-.17c.07-.18.15-.36.23-.54l.12-.27h0a12.65,12.65,0,0,1,2.78-4,6.82,6.82,0,0,1,1.36-1l2.46-1.38c4.09-2.44,9.45.49,16.14,4.15,4.16,2.28,7.7,5,9.86,10h0a29.06,29.06,0,0,1,2.07,9.09c.59,7-1.77,29.54-3.18,39.63h0c-2,16.86-4.56,16.89-8.21,19.71-6.29,4.86-24.36,14.37-30.33,16.72-10.82,4.26-19.66-2.31-26.26-5.56a151.27,151.27,0,0,1-17.46-10.35c-1.65-1.2-2.5-2.41-2.49-3.69C369.22,310.48,369.21,308.41,369.21,307.87Z" style="fill:#3F3F3F"></path><path d="M369.21,307.87c0-1.62,1.43-3.37,4.46-5.33,5.59-3.63,25.78-15.4,33.61-19.74a.06.06,0,0,1,.06-.06c6-3.66,9.65-28.5,13.82-41.72a24.81,24.81,0,0,1,.87-2.44,1.3,1.3,0,0,1,.08-.17c.07-.18.15-.36.23-.54l.12-.27h0a12.65,12.65,0,0,1,2.78-4,6.82,6.82,0,0,1,1.36-1l2.46-1.38c4.09-2.44,9.45.49,16.14,4.15,4.16,2.28,7.7,5,9.86,10h0a29.06,29.06,0,0,1,2.07,9.09c.59,7-1.77,29.54-3.18,39.63h0c-2,16.86-4.56,16.89-8.21,19.71-6.29,4.86-24.36,14.37-30.33,16.72-10.82,4.26-19.66-2.31-26.26-5.56a151.27,151.27,0,0,1-17.46-10.35c-1.65-1.2-2.5-2.41-2.49-3.69C369.22,310.48,369.21,308.41,369.21,307.87Z" style="fill:#fff;opacity:0.25"></path><path d="M389.16,321.88a153,153,0,0,1-17.46-10.34c-3.75-2.73-3.41-5.51,2-9,7.46-4.84,37.9-22.11,37.9-22.11s38.48,22.7,36.83,26.9-25.48,17.16-33,20.12C404.6,331.7,395.76,325.14,389.16,321.88Z" style="fill:#3F3F3F"></path><path d="M389.16,321.88a153,153,0,0,1-17.46-10.34c-3.75-2.73-3.41-5.51,2-9,7.46-4.84,37.9-22.11,37.9-22.11s38.48,22.7,36.83,26.9-25.48,17.16-33,20.12C404.6,331.7,395.76,325.14,389.16,321.88Z" style="fill:#fff;opacity:0.6000000000000001"></path><path d="M426.61,232.62c4.05-2.12,9.32.77,15.83,4.34,4.17,2.28,7.73,5,9.88,10.06l2.75-1.59c-2.16-5.05-5.7-7.76-9.86-10-6.69-3.66-12-6.59-16.14-4.15Z" style="fill:#3F3F3F"></path><path d="M426.61,232.62c4.05-2.12,9.32.77,15.83,4.34,4.17,2.28,7.73,5,9.88,10.06l2.75-1.59c-2.16-5.05-5.7-7.76-9.86-10-6.69-3.66-12-6.59-16.14-4.15Z" style="fill:#fff;opacity:0.5"></path><path d="M407.34,282.74s3.93,1.29,17.92,8.16c5.75,2.82,9.53,5.67,14.91,9.05,7.92,5,7.31,8.69,7.31,8.69,3.94-3.27,7.86-41.1,6.9-52.55a28.75,28.75,0,0,0-2.26-9.53c-.1-.23-.21-.45-.32-.67s-.15-.31-.23-.45l-.12-.21c-.31-.56-.65-1.09-1-1.6-.09-.12-.17-.25-.26-.36s-.18-.25-.28-.37l-.28-.35-.24-.28a16.6,16.6,0,0,0-1.42-1.48c-.12-.12-.25-.23-.38-.34a23.25,23.25,0,0,0-2.5-1.91l-.41-.26-.55-.34-.46-.28c-.4-.24-.81-.47-1.23-.7-5-2.73-9.22-5.06-12.76-5.06a6.59,6.59,0,0,0-4.43,1.68c-2.61,2.31-4,7.16-4.09,7.44C417,254.24,413.36,279.08,407.34,282.74Z" style="fill:#3F3F3F"></path><path d="M407.34,282.74s3.93,1.29,17.92,8.16c5.75,2.82,9.53,5.67,14.91,9.05,7.92,5,7.31,8.69,7.31,8.69,3.94-3.27,7.86-41.1,6.9-52.55a28.75,28.75,0,0,0-2.26-9.53c-.1-.23-.21-.45-.32-.67s-.15-.31-.23-.45l-.12-.21c-.31-.56-.65-1.09-1-1.6-.09-.12-.17-.25-.26-.36s-.18-.25-.28-.37l-.28-.35-.24-.28a16.6,16.6,0,0,0-1.42-1.48c-.12-.12-.25-.23-.38-.34a23.25,23.25,0,0,0-2.5-1.91l-.41-.26-.55-.34-.46-.28c-.4-.24-.81-.47-1.23-.7-5-2.73-9.22-5.06-12.76-5.06a6.59,6.59,0,0,0-4.43,1.68c-2.61,2.31-4,7.16-4.09,7.44C417,254.24,413.36,279.08,407.34,282.74Z" style="fill:#fff;opacity:0.4"></path></g></g><g id="freepik--character--inject-2"><g id="freepik--Bottom--inject-2"><path d="M402.42,353.8a4.68,4.68,0,0,1,.8,1.44c.21.93-1.44,4.32-2.1,5.56a7.42,7.42,0,0,0-.68,5.54,12.8,12.8,0,0,1-1.82,8.79,20.91,20.91,0,0,1-9.3,8.25c-4.77,2.28-6.94.1-6.94.1s-1.95-2.13-1.17-3.25S402.42,353.8,402.42,353.8Z" style="fill:#263238"></path><path d="M395.27,345.47c.15,0,.41-.12.88.29.18.15,1.46,2.22,2.41,3.26s3.3,2.94,3.86,4.78c-.56,3.82-3.64,6.89-3.6,10.41s.63,7.51-4.08,12.55-10.18,6.32-12.36,5.52-2.33-2.93-.21-7.34c2.26-4.68,2.75-14.15,2.75-14.15a31.13,31.13,0,0,0-.11-4,25.55,25.55,0,0,0-1-3.79,2.89,2.89,0,0,1,0-1.79,3,3,0,0,1,1.32-1.23,13.82,13.82,0,0,1,2.62-1.35,4.61,4.61,0,0,1,2.91-.1,21.18,21.18,0,0,0,2,.84,2.6,2.6,0,0,0,2.57-.87,2.12,2.12,0,0,0,.33-2.49A4.66,4.66,0,0,0,395.27,345.47Z" style="fill:#37474f"></path><path d="M393.54,356.17a.6.6,0,0,1-.52.08c-1-.31-5.8-.55-8.12,2.35-.4-.22-.41-.74-.08-1.53,2.87-2.47,7.45-2.27,8.6-1.9a.55.55,0,0,1,.35.71A.66.66,0,0,1,393.54,356.17Z" style="fill:#263238"></path><path d="M384.84,362a1.7,1.7,0,0,1,.08-1.59,11,11,0,0,1,8.24-1.6.53.53,0,0,1,.34.71.53.53,0,0,1-.23.28.6.6,0,0,1-.52.08C391.82,359.54,387.23,359.32,384.84,362Z" style="fill:#263238"></path><path d="M383.74,369.9a3.22,3.22,0,0,1,.41-2.15c2.87-2.36,7.34-2.16,8.48-1.8a.53.53,0,0,1,.34.71.58.58,0,0,1-.22.29.62.62,0,0,1-.53.08C391.21,366.71,385.88,366.46,383.74,369.9Z" style="fill:#263238"></path><path d="M393,363.36a.59.59,0,0,1-.52.07c-.95-.3-5.69-.53-8,2.27a2,2,0,0,1,.21-1.74,11,11,0,0,1,8.23-1.6.54.54,0,0,1,.35.71A.66.66,0,0,1,393,363.36Z" style="fill:#263238"></path><path d="M389.28,387.67a5.08,5.08,0,0,1-.23,1.7c-.41.9-3.94,2.75-5.28,3.39A7.88,7.88,0,0,0,379.7,397a13.61,13.61,0,0,1-7.08,6.26,22.41,22.41,0,0,1-13.06,1.24c-5.48-1-5.93-4.16-5.93-4.16s-.3-3,1.05-3.44S389.28,387.67,389.28,387.67Z" style="fill:#263238"></path><path d="M388.48,376.31c.15.07.43.16.57.78.05.24-.17,2.75,0,4.21s1,4.48.26,6.37c-2.88,2.86-7.42,3.56-9.6,6.54s-4.21,6.69-11.36,8-12.6-.91-13.93-2.92-.13-3.88,4.45-6.29c4.86-2.54,11.23-10.19,11.24-10.19a32.19,32.19,0,0,0,2.4-3.41,26.31,26.31,0,0,0,1.55-3.8,2.94,2.94,0,0,1,1.1-1.52,3.25,3.25,0,0,1,1.89-.23,14.33,14.33,0,0,1,3.06.47,4.8,4.8,0,0,1,2.53,1.7c.43.6.65,1.34,1.13,1.9a2.77,2.77,0,0,0,2.73.85,2.28,2.28,0,0,0,1.85-1.9S388.48,376.31,388.48,376.31Z" style="fill:#37474f"></path><path d="M380.28,384.23a.62.62,0,0,1-.5-.25c-.61-.84-4.56-4-8.35-3-.19-.43.13-.87.9-1.32,4-.33,7.73,2.64,8.47,3.65a.55.55,0,0,1-.15.81A.58.58,0,0,1,380.28,384.23Z" style="fill:#263238"></path><path d="M369.27,383.78a1.82,1.82,0,0,1,1.07-1.29,11.61,11.61,0,0,1,8,3.69.56.56,0,0,1-.16.81.69.69,0,0,1-.37.1.64.64,0,0,1-.49-.26C376.7,386,373,383,369.27,383.78Z" style="fill:#263238"></path><path d="M363.34,389.77a3.39,3.39,0,0,1,1.69-1.55c3.92-.23,7.58,2.67,8.31,3.67a.55.55,0,0,1-.16.81.69.69,0,0,1-.37.1.65.65,0,0,1-.49-.26C371.67,391.65,367.31,388.19,363.34,389.77Z" style="fill:#263238"></path><path d="M375.3,389.94a.6.6,0,0,1-.49-.25c-.61-.83-4.48-3.92-8.22-3a2.07,2.07,0,0,1,1.26-1.33,11.61,11.61,0,0,1,8,3.69.56.56,0,0,1-.16.81A.55.55,0,0,1,375.3,389.94Z" style="fill:#263238"></path><path d="M400.81,277.18s-22,11.67-32.4,22.44c-3.73,3.86-6.06,7.24-2.17,17.24,3,7.71,12.93,27.5,17.72,37.48,6.63.55,10.88-2.35,13.86-7.07-3-10.45-3.49-25.75-9-31.67l36.53-26.79Z" style="fill:#455a64"></path><path d="M378.28,342.67l30-44.53-1-.17c-5.56-2.43-7.83-10-7.83-10a12.89,12.89,0,0,0,2.41,9.6c-3.14,2.29-10.24,7.5-21.15,15.64-1.89,1.42-4.24,3.12-5,8.71a128.18,128.18,0,0,0-1.12,13.16Z" style="fill:#37474f"></path><path d="M400.93,277.28h0l44.68,5.17c0,5.45.72,17-3.41,23.12-3,4.45-6.53,7.88-18.14,14-10.82,5.67-21,10.31-23.46,11.64-1.87,1-2.35,3.76-2.91,8.68a163.48,163.48,0,0,1-4.45,23.21c-1.38,5.35-4,20-4,20s-10.1,0-16.8-3.59c0,0,2.76-40.27,3.12-46.92.31-5.68,1-11,5.33-15.19,3.72-3.63,26.51-19.25,26.51-19.25S397,287.44,400.93,277.28Z" style="fill:#455a64"></path><path d="M440.22,283.15c-.26,7.47-1.3,13.14-6.69,18.64-3.42-2.32-2.72-4.46-1.43-8.3.39-1.16.82-2.47,1.19-3.95a38.24,38.24,0,0,0,1.19-7.26l-.63-.1a37.1,37.1,0,0,1-1.17,7.21c-.36,1.46-.8,2.75-1.18,3.9-1.28,3.83-2.13,6.39,1.58,8.95a36.51,36.51,0,0,1-4.37,3.6c-8,5.72-19.4,12.42-26.18,16.43-2.37,1.4-4.24,2.51-5.21,3.12-3.93,2.49-4,4-3.91,10.57.11,5.3-4.84,35.87-7.22,46.92l.61.05c2.43-11.47,7.35-41.73,7.24-47-.13-6.68.09-7.79,3.62-10,1-.6,2.83-1.71,5.19-3.11,6.79-4,18.16-10.72,26.22-16.45,9.88-7,11.45-13.65,11.78-23.12Z" style="fill:#37474f"></path></g><g id="freepik--Top--inject-2"><path d="M408.83,225c-9.07,2.12-11,6.62-15.22,15.84s-7.92,22.22-7.57,24.47l15.71-6.13Z" style="fill:#455a64"></path><path d="M402.35,256.27c-7.27-1.41-11.29,1.29-13.71,4.69l4.37,1.62,8.74-3.41Z" style="fill:#37474f"></path><path d="M403.24,239.11c1.36-13.15,5.37-13.43,13.05-15.11,0,0,8.94-2,14.22-.9,6.42,1.3,11.71,3.65,16.86,5.28,2.52,1.34.85,8.74.79,18.06,0,6.63-.63,18.38-1.08,26.74s-1.06,14.32-2.25,23c-9.32,3-39.16-2.5-46.05-18.26,1-2.25,1.69-10.06,1.86-14.5S402.81,243.24,403.24,239.11Z" style="fill:#f0f0f0"></path><path d="M421.65,233.21s-1.74,12.94-1.91,14.81-6.82,11.15-6.82,11.15a109.8,109.8,0,0,1-.17-11.65c.34-3.51,5.15-15.47,5.15-15.47Z" style="fill:#3F3F3F"></path><path d="M417.64,232.54c.8,1.12,2.69,1.45,4,1.33,0-.42,0-.66,0-.66l-3.75-1.16Z" style="opacity:0.30000000000000004"></path><path d="M435.05,224.18s-15.66,18.81-21.23,32c-.14-10.21,2-25.83,2-25.83l.47-7s-5.39.94-7.5,1.65c-4.3,1.45-5.45,7.15-6.49,16.75-.78,7.27-2.49,23.22-2.9,28.53a26.46,26.46,0,0,1-2.14,8.85s.93,5.64,8.1,11.19,31.45,12.4,40.21,6.61c0-.37,1.75-15.12,2.56-33.86s3.18-30.49-.34-35.07Z" style="fill:#263238"></path><g id="freepik--Head--inject-2"><path d="M432.87,216.48c.44-3.71,3.91-7.74,5.4-11s2.27-5.62,2-8.52c-.2-1.71-1.4-4-2.7-4.42a8,8,0,0,0-6.37-9.69,27.67,27.67,0,0,1-3.58-.82c-1.41-.51-1.78-1.61-2.95-2.5-2-1.54-5.25-1.42-6.36,1.12-1.37-1.6-3.1-1.47-5.09-.86a3.42,3.42,0,0,0-2.43,4,3.61,3.61,0,0,0-5.3,2.24c-.13,1.18.17,2.15-.54,3.23s-2.43,1.28-3,.35c-.19,1.67.52,2.9,2.31,2.72a3.76,3.76,0,0,0-.32,3.18,3.44,3.44,0,0,0,3.22,2.21,5.27,5.27,0,0,0,3.13,4.29c2.78,1.16,5.81,1.43,8.76,1.89l3.51.55c.21,0,1.26,0,1.39.22Z" style="fill:#37474f"></path><path d="M434.12,195.16l.4.09a3.64,3.64,0,0,1-1.52.5,14.29,14.29,0,0,1-4.88-.12,15.15,15.15,0,0,0,6.32,1.74c.05.07-.05.16-.14.19a8.91,8.91,0,0,1-3.54.55,6.21,6.21,0,0,0-1.67,0,2.11,2.11,0,0,0,1.15.78,15.79,15.79,0,0,0,2.52.73,1.2,1.2,0,0,1,.64.28,8,8,0,0,1-3.65.08,4,4,0,0,1-2.88-1.85,7.45,7.45,0,0,1-1.32-4.5.3.3,0,0,1,.08-.24.28.28,0,0,1,.2,0,11.63,11.63,0,0,1,2.47.63c1.06.27,2.12.52,3.19.74a12.55,12.55,0,0,0,1.6.31C433.45,195.1,433.78,195.1,434.12,195.16Z" style="fill:#455a64"></path><path d="M437.09,211.5a3.57,3.57,0,0,1-4.35.08l.79,12.13c-1.77,5.3-10.6,6.61-13.9,5.3s-3.07-3.37-1.11-6.38l-.3-1.87a34.26,34.26,0,0,1-4.33,0c-2.91-.26-5.48-2.93-6.45-6a27.41,27.41,0,0,1-.68-11.93,9.23,9.23,0,0,0,.42-3.06,14.4,14.4,0,0,1,.16-6.53c3.05-2.71,10.35-3.94,17.4-.12-.59,4.12,1.16,7.27,4.2,8.67-.09,1.11-.09,3.9,1.72,3.76,1.3-.1,1.31-1.74,2.57-3.25s4.37-2.05,5.69,0A7.06,7.06,0,0,1,437.09,211.5Z" style="fill:#ffa8a7"></path><path d="M417.47,227a19.25,19.25,0,0,0,.43,5.06c2.26,1.5,3.75,1.16,3.75,1.16a11.49,11.49,0,0,0,3-5C423.54,226.57,418.58,225.61,417.47,227Z" style="fill:#3F3F3F"></path><path d="M435.05,224.18l-1.76-4.09s-8.86,6.61-12.2,5.74c-1.8-.47-2.57-3.2-2.57-3.2l-.24-1.47-1.95,2.18-.47,6.88,5.23-3.18,3.07,6.6s6.13-3.64,8.32-6A12.09,12.09,0,0,0,435.05,224.18Z" style="fill:#e0e0e0"></path><path d="M422.88,202.07a.53.53,0,0,0-.13-.23.41.41,0,0,0-.23-.11,1.1,1.1,0,0,0-.31,0,1.26,1.26,0,0,0-.33.1l-.13.06a.67.67,0,0,0-.18.11.42.42,0,0,0-.12.3.43.43,0,0,0,.13.28c.05,0,.15.08.21,0s-.08,0-.05,0h0l.1,0,.11,0,.21,0,.24,0a1.86,1.86,0,0,0,.33,0c.07,0,.12-.12.14-.19A.5.5,0,0,0,422.88,202.07Zm-.41,1.13-.15,0h-.17a2,2,0,0,0-.42,0c-.06,0-.11.09-.13.15a.52.52,0,0,0,0,.25.42.42,0,0,0,.15.22l.06,0a.17.17,0,0,0,.12,0h0a1.51,1.51,0,0,1,.37,0l.17,0a.33.33,0,0,0,.14,0l.08-.05a.31.31,0,0,0,.09-.26.42.42,0,0,0-.14-.28A.53.53,0,0,0,422.47,203.2Z" style="fill:#f28f8f"></path><path d="M424.74,199.82l9,2a3.46,3.46,0,0,0-1.18,1.45l-7.81-1.37Z" style="fill:#263238"></path><path d="M404,199.49a2.4,2.4,0,0,0,.42,1.27,1,1,0,0,1,.18.45,23.77,23.77,0,0,0,.43,3.44,3.53,3.53,0,0,0,3.39,2.64,5,5,0,0,0,1.24,0l.1,0a3.65,3.65,0,0,0,1-.36l.06,0,.09-.05.11-.08.11-.07.11-.08.12-.09.21-.2a4.82,4.82,0,0,0,.9-1.27c.61-1.18.61-2.85,1.47-3h.21c1.15.08.9,1.88,1.46,3.22a4.28,4.28,0,0,0,4.1,2.86l.33,0h.26A4,4,0,0,0,421,208l.19,0,.19,0,.12,0a3.21,3.21,0,0,0,.7-.3l.24-.15a4.78,4.78,0,0,0,.42-.34,4,4,0,0,0,.82-1.19,22.12,22.12,0,0,0,.84-3.37,1.3,1.3,0,0,1,.21-.47,2.34,2.34,0,0,0,.61-1.18,1.05,1.05,0,0,0-.65-1.09l-.6-.11a18.72,18.72,0,0,0-6.05-.22c-1.95.44-2.66,1-3.73,1s-1.6-.75-3.36-1.44a16,16,0,0,0-5.62-.57l-.57,0C404.41,198.49,404,199,404,199.49Zm12.54,1.84a1.56,1.56,0,0,1,.58-.43l.1-.05.06,0,.27-.11.26-.09a6.4,6.4,0,0,1,.84-.23l.33-.06c.28,0,.56-.07.85-.09h.2a4.82,4.82,0,0,1,3.39.85c.42.42.14,2.16-.08,3l0,.06v.07c0,.11-.06.23-.1.36s-.05.15-.07.23h0a3.59,3.59,0,0,1-.15.37h0l-.06.12,0,.08a.22.22,0,0,1-.05.08.37.37,0,0,1-.05.11l-.07.12-.08.12-.09.13a3,3,0,0,1-2.7,1.15,3.53,3.53,0,0,1-2.71-1.23h0a4,4,0,0,1-.79-1.88A4.18,4.18,0,0,1,416.55,201.33Zm-10.81-1.46a1.75,1.75,0,0,1,.48-.26l0,0,.2-.07.13,0,.1,0,.07,0h0l.1,0,.43-.05h.48l.3,0h.21a7.07,7.07,0,0,1,.84.12,5,5,0,0,1,2.94,1.52,4.52,4.52,0,0,1-.11,2.7,4.72,4.72,0,0,1-.22.67.08.08,0,0,0,0,0l0,.07,0,0s0,.05,0,.08l-.09.16a.64.64,0,0,1-.08.14l0,.05-.06.09-.06.08v0a3,3,0,0,1-2.9,1.17,3.12,3.12,0,0,1-1.37-.42,3.88,3.88,0,0,1-1.55-3C405.39,202,405.31,200.24,405.74,199.87Z" style="fill:#37474f"></path><path d="M415.31,203.94l-1.09,6.38-4.46-2,.52-.83.27-.44.5-.82c.47-.73.93-1.46,1.38-2.1.24-.34.5-.7.75-1a9.15,9.15,0,0,1,.61-.71,3.43,3.43,0,0,1,.41-.38C415,202,415.12,202.94,415.31,203.94Z" style="fill:#f28f8f"></path><path d="M418.72,211.33a.36.36,0,0,0-.23,0,2.83,2.83,0,0,0-.62.33,6.83,6.83,0,0,1-2.34,1,5,5,0,0,1-.54.08l-.61.06a.39.39,0,0,0-.19.06c-.37.3.74.37.85.37a5.48,5.48,0,0,0,1.28-.09,5,5,0,0,0,2.3-1.07.93.93,0,0,0,.25-.31.31.31,0,0,0-.1-.36Z" style="fill:#b16668"></path><path d="M418.22,220.76c4.55-.76,8.06-1.42,10.28-4.85a29,29,0,0,0,2.49-5.57,22.55,22.55,0,0,1-1.62,6.9c-1.05,2.17-3.75,4.18-10.89,5.15Z" style="fill:#f28f8f"></path><path d="M417.91,203.19a1.29,1.29,0,1,0,1.29-1.35A1.33,1.33,0,0,0,417.91,203.19Z" style="fill:#263238"></path><path d="M419.47,197.73l3,.9a1.67,1.67,0,0,0-1.1-2A1.54,1.54,0,0,0,419.47,197.73Z" style="fill:#263238"></path><path d="M407.82,198.22l3.14-.51a1.54,1.54,0,0,0-1.77-1.34A1.67,1.67,0,0,0,407.82,198.22Z" style="fill:#263238"></path><path d="M408,202.47a1.29,1.29,0,1,0,2.57-.24,1.3,1.3,0,0,0-1.4-1.21A1.32,1.32,0,0,0,408,202.47Z" style="fill:#263238"></path></g><path d="M413.82,256.17s1.82-5.58,9.48-17,10.6-17.68,10.6-17.68l6,4.13s-4.24,10.89-6.1,13.42-6.17.54-6.17.54,2.61,3.15,2.43,4.24-18.79,22.05-18.79,22.05-3.33-17.24-3.2-24.57c.06-3.7,4.32-3.29,4.32-3.29s-4.78.67-3.89-3.53c.66-3.07,4.3-10.62,4.3-10.62l4.41-1.47S413.5,245.27,413.82,256.17Z" style="fill:#37474f"></path><path d="M447.83,228c6.81,2.1,9.93,9.31,7.24,17.07a255.24,255.24,0,0,1-11.15,26.37c-2.63,5.34-4,6.08-6.68,6.49l-4.06-21.4,7.11-16.14S444.72,229.37,447.83,228Z" style="fill:#455a64"></path><path d="M444.09,259.8c-.73-2.73-3.22-7.09-6.54-13.2l-3.51,8c2.71,6.2,8,17.76,8.88,15.71C444.12,267.48,444.87,262.73,444.09,259.8Z" style="fill:#37474f"></path><g id="freepik--Hand--inject-2"><path d="M430.51,237.3c-.91-5.12-.58-7.48-2.18-10a51.3,51.3,0,0,0-4.86-5.72c-1-.94-2.9-2.21-4.44-3.49s-2-1.64-3.85-1.61c-2.56,0-4.58,0-5.5.49s-.77,1.1.23,1.81,2.82.58,3.41.65,1.89.37,1.89.37l2.93,3a34.27,34.27,0,0,0-4.46,2c-.69.56-1,2.66-.44,3.68a2.15,2.15,0,0,0-.43,2.54s-.66,1.3.11,2.13a15.36,15.36,0,0,0,2.8,2.15,6.5,6.5,0,0,0,2.45.08,20.69,20.69,0,0,0,1.07,3.52c1,2.15,2.13,2.31,2.55,4.19Z" style="fill:#ffa8a7"></path><path d="M430.51,237.3c-.31-1.69-.52-3.4-.74-5.1a11.31,11.31,0,0,0-1.49-4.86,42.33,42.33,0,0,0-3.24-4c-.58-.63-1.15-1.27-1.77-1.86s-1.33-1.07-2-1.59-1.38-1-2.05-1.56a10.58,10.58,0,0,0-2.06-1.49,6.32,6.32,0,0,0-2.5-.27c-.86,0-1.71,0-2.57.07a6,6,0,0,0-2.45.47,1.05,1.05,0,0,0-.41.4.55.55,0,0,0,.08.52,2.71,2.71,0,0,0,.92.79,6.57,6.57,0,0,0,2.47.46l.65,0,.63.13,1.27.25h0l0,0,2.91,3,.11.11-.14.05c-1.36.53-2.73,1.06-4,1.72-.7.27-.91,1-1,1.73a3.78,3.78,0,0,0,.21,2.11l0,.05,0,0a2.53,2.53,0,0,0-.65,1.16,1.74,1.74,0,0,0,.22,1.28l0,0v0a2,2,0,0,0,0,1.9,9.45,9.45,0,0,0,1.52,1.36l.84.59a2.27,2.27,0,0,0,.89.45,8.8,8.8,0,0,0,2.05,0h0v0a15.31,15.31,0,0,0,1.33,4.09,11.22,11.22,0,0,0,1.27,1.74,4.11,4.11,0,0,1,1,1.9,4.21,4.21,0,0,0-1-1.89,10.52,10.52,0,0,1-1.29-1.73,15.14,15.14,0,0,1-1.39-4.08l.05,0a8,8,0,0,1-2.07,0,2.22,2.22,0,0,1-1-.46l-.85-.59a9.24,9.24,0,0,1-1.56-1.38,2.11,2.11,0,0,1,0-2V231a1.79,1.79,0,0,1-.24-1.39,2.62,2.62,0,0,1,.68-1.24l0,.09a3.87,3.87,0,0,1-.23-2.2,4.16,4.16,0,0,1,.31-1.08,1.62,1.62,0,0,1,.81-.78,43.59,43.59,0,0,1,4-1.75l0,.16-2.93-3,.05,0-1.26-.24-.63-.12c-.2,0-.42,0-.63,0a6.3,6.3,0,0,1-2.56-.48,2.91,2.91,0,0,1-1-.88.74.74,0,0,1-.09-.71,1.13,1.13,0,0,1,.49-.5,6.13,6.13,0,0,1,2.55-.49c.86,0,1.72-.05,2.58-.06a6.27,6.27,0,0,1,2.57.3,10,10,0,0,1,2.1,1.52c.67.54,1.35,1.05,2,1.57s1.38,1,2,1.6,1.19,1.24,1.77,1.88a41.74,41.74,0,0,1,3.24,4,11.32,11.32,0,0,1,1.45,4.91C430,233.9,430.22,235.6,430.51,237.3Z" style="fill:#f28f8f"></path><path d="M416.45,223.44c-1-.22-1.32-.81-2.13-.32s-.29,1.43-.29,1.43Z" style="fill:#f28f8f"></path><path d="M413.29,228.54A8.55,8.55,0,0,1,415,227c.58-.43,1.82-1.14,1.82-1.14a9.52,9.52,0,0,0-2.59,1.14,7,7,0,0,0-1.15.87,2.15,2.15,0,0,0,.2.62Z" style="fill:#f28f8f"></path><path d="M413.4,229.87a9.16,9.16,0,0,0-.81.62,2.27,2.27,0,0,0,.27.6,7.79,7.79,0,0,1,2.17-2A7.77,7.77,0,0,0,413.4,229.87Z" style="fill:#f28f8f"></path><path d="M418.17,235.35a6.71,6.71,0,0,0-2-2.28,1.43,1.43,0,0,0-1.94.18c-.17.41,1.08.13,1.48.23A8,8,0,0,1,418.17,235.35Z" style="fill:#f28f8f"></path><path d="M419.19,222.47s-.9-.87-2.48-2.24-1.45-1.15-2.74-1.17-3.71,0-4.49-.62a4.29,4.29,0,0,0,.43.35c1,.68,2.82.58,3.41.65s1.89.37,1.89.37l3,3.05Z" style="fill:#f28f8f"></path><path d="M430.51,237.3c.78,4.52,11.54,21.88,12.42,26.1s-2.12,12.16-4.24,13.8-7-.37-9.41-5.09-6.13-22.57-7.49-29.05Z" style="fill:#ffa8a7"></path><path d="M433.18,243.12l-.91-2.29a15,15,0,0,1-5,3.1,23.38,23.38,0,0,1-5.29,1.26l.63,3.1a11.14,11.14,0,0,0,5.78-1.59A24,24,0,0,0,433.18,243.12Z" style="fill:#fafafa"></path><path d="M422.18,247.61c3.62.09,9.48-3,11-5.25,0,0,9.17,17.21,9.91,19.64s.5,10-2.47,13.73-6.33,3.19-9.69-.67S426.1,266.94,422.18,247.61Z" style="fill:#455a64"></path></g><g id="freepik--Arm--inject-2"><path d="M444.23,272.52c-.4.69-1.27,1.33-1.38,2.06-.27,1.83-4.12,2.81-5.57,4.12-4.1,2.67-14.4,2.64-22.22,1.39-12.74-2-23.58-8-26.93-11.62-2-2.19-1.6-3.85-.93-4.93a9.61,9.61,0,0,1,3.53-3.27c3.5-2.25,8.69-2.07,10.1-1.68,4.07,2.5,9.61,7.07,14.13,9a17.69,17.69,0,0,0,5.76,1.49c1.37-.06,2.18-.07,3-.9a15.65,15.65,0,0,1,4.39-3.22,19,19,0,0,0,3.68-2.6c.33-.28.92-.08,1.24.23a1.41,1.41,0,0,1,.31,1.26c-.3,2.25-2.11,3.8-3.33,5.6a2.33,2.33,0,0,0-.54,1.66,1.76,1.76,0,0,0,1.18,1.26c1.65.61,10.05.64,13.95-2.28A4.79,4.79,0,0,1,444.23,272.52Z" style="fill:#ffa8a7"></path><path d="M423.7,268.14a15.37,15.37,0,0,1,3.63-2.93c.68-.4,1.37-.73,2-1.18s1.23-.93,1.82-1.43l.45-.37a.82.82,0,0,1,.67-.22,1.4,1.4,0,0,1,1.1.7,2,2,0,0,1,.13,1.27,5.69,5.69,0,0,1-.32,1.16,19,19,0,0,1-2.64,3.9,3.17,3.17,0,0,0-.89,1.93,1.65,1.65,0,0,0,1.45,1.27,21.38,21.38,0,0,0,4.6.18,25.46,25.46,0,0,0,4.6-.63,12.59,12.59,0,0,0,4.28-1.74,12.64,12.64,0,0,1-4.23,1.95,24.9,24.9,0,0,1-4.62.77,19.07,19.07,0,0,1-4.71-.13,2,2,0,0,1-1.8-1.63,3.48,3.48,0,0,1,.95-2.24,18.44,18.44,0,0,0,2.62-3.78,4.59,4.59,0,0,0,.31-1.08,1.56,1.56,0,0,0-.07-1,1.12,1.12,0,0,0-.79-.52.48.48,0,0,0-.41.13l-.46.36c-.61.48-1.22,1-1.88,1.4a23.09,23.09,0,0,1-2.06,1.13A15.6,15.6,0,0,0,423.7,268.14Z" style="fill:#f28f8f"></path></g><path d="M400.64,257.81s5.38,3.82,7.05,5.21,8.17,4.63,8.17,4.63-3.14,1.23-4,5.92.2,6.44.2,6.44-10-2.32-15.46-5.35-10.21-5.42-10.6-9.36C387.89,259.91,392.58,256.8,400.64,257.81Z" style="fill:#455a64"></path></g></g></g></g><g id="freepik--Table--inject-2"><g id="freepik--table--inject-2"><g id="freepik--Body--inject-2"><path d="M290.19,296.59v75.83l110.69,63.9V360.51Z" style="fill:#455a64"></path><polygon points="400.89 360.5 400.89 436.32 454.49 405.38 454.49 329.55 400.89 360.5" style="fill:#37474f"></polygon><path d="M290.18,296.6l110.71,63.9,53.6-30.95-110.71-63.9Z" style="fill:#455a64"></path></g><path d="M285.05,292.92l3.17-1.83,55.85-32.26h0l112.68,65a2.17,2.17,0,0,1,1.31,1.92v6.43a2.22,2.22,0,0,1-1.31,1.87l-55.86,32.27L285.05,299.46Z" style="fill:#37474f"></path><path d="M404.06,357.94a6.54,6.54,0,0,1-3.17.75v7.64l3.17-1.83,52.68-30.44,3.18-1.8v-6.59l-3.18,1.83Z" style="fill:#263238"></path><polygon points="344.07 258.83 459.92 325.67 400.89 359.77 285.05 292.92 344.07 258.83" style="fill:#3F3F3F"></polygon><polygon points="344.07 258.83 459.92 325.67 400.89 359.77 285.05 292.92 344.07 258.83" style="fill:#fff;opacity:0.6000000000000001"></polygon><g id="freepik--Logo--inject-2"><path d="M345.17,347.85a.36.36,0,0,1,.13.16.54.54,0,0,1,.05.22v.71a.25.25,0,0,1-.05.16.1.1,0,0,1-.13,0l-1.17-.67v5.48a.19.19,0,0,1-.05.16.09.09,0,0,1-.12,0l-.53-.31a.24.24,0,0,1-.12-.15.42.42,0,0,1-.05-.22v-5.48l-1.17-.67a.39.39,0,0,1-.13-.15.63.63,0,0,1-.05-.22v-.71a.22.22,0,0,1,.05-.16.09.09,0,0,1,.13,0Z" style="fill:#fafafa"></path><path d="M349.54,350.37a.35.35,0,0,1,.12.16.54.54,0,0,1,0,.22v6.45a.22.22,0,0,1,0,.16.08.08,0,0,1-.12,0l-.53-.3a.31.31,0,0,1-.12-.15.44.44,0,0,1-.05-.22v-2.64l-2-1.13v2.64a.21.21,0,0,1-.05.16.1.1,0,0,1-.12,0l-.53-.31a.27.27,0,0,1-.12-.15.42.42,0,0,1-.05-.22V348.6a.19.19,0,0,1,.05-.16.09.09,0,0,1,.12,0l.53.31a.24.24,0,0,1,.12.15.42.42,0,0,1,.05.22v2.57l2,1.13v-2.57a.19.19,0,0,1,.05-.16.09.09,0,0,1,.12,0Z" style="fill:#fafafa"></path><path d="M353.75,358.56a.39.39,0,0,1,.13.15.59.59,0,0,1,.05.22v.71a.23.23,0,0,1-.05.16.1.1,0,0,1-.13,0l-2.85-1.65a.31.31,0,0,1-.12-.15.44.44,0,0,1,0-.22v-6.46a.19.19,0,0,1,0-.16.09.09,0,0,1,.12,0l2.8,1.62a.31.31,0,0,1,.12.15.46.46,0,0,1,.06.22v.71a.2.2,0,0,1-.06.16.09.09,0,0,1-.12,0l-2.1-1.21v1.59l2,1.12a.35.35,0,0,1,.12.16.42.42,0,0,1,.05.22v.71a.21.21,0,0,1-.05.16.09.09,0,0,1-.12,0l-2-1.12v1.66Z" style="fill:#fafafa"></path><path d="M351.89,361.24l-9.33-5.39a.27.27,0,0,0-.36,0,.62.62,0,0,0-.15.46v2.06a1.46,1.46,0,0,0,.15.64,1,1,0,0,0,.36.44l3.39,2v15.89a1.53,1.53,0,0,0,.15.64,1,1,0,0,0,.36.44l1.53.88a.26.26,0,0,0,.35,0,.62.62,0,0,0,.16-.46V362.9l3.39,2a.27.27,0,0,0,.35,0,.63.63,0,0,0,.15-.47v-2.06a1.45,1.45,0,0,0-.15-.63A1,1,0,0,0,351.89,361.24Zm12.75,7.59a1,1,0,0,0-.36-.44l-1.43-.82c-.19-.11-.33-.11-.43,0a.9.9,0,0,0-.19.36l-3.17,12-3.16-15.66a3.43,3.43,0,0,0-.2-.59,1.1,1.1,0,0,0-.42-.5l-1.44-.82a.27.27,0,0,0-.35,0,.65.65,0,0,0-.15.47v.1a1.62,1.62,0,0,0,0,.21l4.22,20.68a4.56,4.56,0,0,0,.27.89,1.12,1.12,0,0,0,.45.51l1.5.87c.21.11.36.12.46,0a1.36,1.36,0,0,0,.26-.59l4.22-15.8a.54.54,0,0,0,0-.17v-.1A1.5,1.5,0,0,0,364.64,368.83Z" style="fill:#3F3F3F"></path><path d="M351.89,361.24l-9.33-5.39a.27.27,0,0,0-.36,0,.62.62,0,0,0-.15.46v2.06a1.46,1.46,0,0,0,.15.64,1,1,0,0,0,.36.44l3.39,2v15.89a1.53,1.53,0,0,0,.15.64,1,1,0,0,0,.36.44l1.53.88a.26.26,0,0,0,.35,0,.62.62,0,0,0,.16-.46V362.9l3.39,2a.27.27,0,0,0,.35,0,.63.63,0,0,0,.15-.47v-2.06a1.45,1.45,0,0,0-.15-.63A1,1,0,0,0,351.89,361.24Zm12.75,7.59a1,1,0,0,0-.36-.44l-1.43-.82c-.19-.11-.33-.11-.43,0a.9.9,0,0,0-.19.36l-3.17,12-3.16-15.66a3.43,3.43,0,0,0-.2-.59,1.1,1.1,0,0,0-.42-.5l-1.44-.82a.27.27,0,0,0-.35,0,.65.65,0,0,0-.15.47v.1a1.62,1.62,0,0,0,0,.21l4.22,20.68a4.56,4.56,0,0,0,.27.89,1.12,1.12,0,0,0,.45.51l1.5.87c.21.11.36.12.46,0a1.36,1.36,0,0,0,.26-.59l4.22-15.8a.54.54,0,0,0,0-.17v-.1A1.5,1.5,0,0,0,364.64,368.83Z" style="fill:#fff;opacity:0.6000000000000001"></path><path d="M344.34,379.22a4,4,0,0,1,1,.78,6.09,6.09,0,0,1,.69,1,5.25,5.25,0,0,1,.42,1,4.54,4.54,0,0,1,.16.86.25.25,0,0,1-.07.21.12.12,0,0,1-.15,0l-.57-.33a.51.51,0,0,1-.21-.2,1.57,1.57,0,0,1-.13-.29,2.81,2.81,0,0,0-.37-.76,2.15,2.15,0,0,0-.73-.66,1.51,1.51,0,0,0-.41-.16.52.52,0,0,0-.33,0,.37.37,0,0,0-.22.19.69.69,0,0,0-.08.38,1.61,1.61,0,0,0,.07.51,1.54,1.54,0,0,0,.26.46,4.5,4.5,0,0,0,.49.53l.75.69a11.15,11.15,0,0,1,.84.87,4.42,4.42,0,0,1,.57.86,3.78,3.78,0,0,1,.34.9,4.46,4.46,0,0,1,.11,1,2.66,2.66,0,0,1-.16.95,1.1,1.1,0,0,1-.47.56,1.25,1.25,0,0,1-.74.12,2.73,2.73,0,0,1-1-.37,4.22,4.22,0,0,1-.87-.67,5.14,5.14,0,0,1-.74-.92,5.21,5.21,0,0,1-.52-1.06,4.18,4.18,0,0,1-.22-1.13c0-.11,0-.18.07-.21s.09,0,.15,0l.57.32a.51.51,0,0,1,.21.2,1.42,1.42,0,0,1,.13.3,3.84,3.84,0,0,0,.14.4,2.06,2.06,0,0,0,.21.42,3.13,3.13,0,0,0,.35.4,2.41,2.41,0,0,0,.52.38,2.19,2.19,0,0,0,.47.22.82.82,0,0,0,.4,0,.42.42,0,0,0,.27-.16.69.69,0,0,0,.11-.43,1.26,1.26,0,0,0-.11-.51,2.08,2.08,0,0,0-.35-.5c-.15-.17-.35-.36-.57-.57l-.79-.75a7.05,7.05,0,0,1-.71-.76,3.85,3.85,0,0,1-.51-.8,3.79,3.79,0,0,1-.29-.88,4.67,4.67,0,0,1-.1-1,2.37,2.37,0,0,1,.16-.94,1.17,1.17,0,0,1,.45-.56,1.14,1.14,0,0,1,.68-.14A2,2,0,0,1,344.34,379.22Z" style="fill:#fafafa"></path><path d="M352.09,383.82a.38.38,0,0,1,.15.19.54.54,0,0,1,.07.27v8.09a.27.27,0,0,1-.07.21.12.12,0,0,1-.15,0l-.66-.38a.42.42,0,0,1-.15-.19.58.58,0,0,1-.07-.28v-3.31L348.75,387v3.3a.28.28,0,0,1-.06.2.12.12,0,0,1-.16,0l-.65-.38a.32.32,0,0,1-.16-.18.67.67,0,0,1-.06-.28V381.6a.28.28,0,0,1,.06-.2.12.12,0,0,1,.16,0l.65.38a.35.35,0,0,1,.16.19.66.66,0,0,1,.06.27v3.22l2.46,1.42v-3.22a.24.24,0,0,1,.07-.2.11.11,0,0,1,.15,0Z" style="fill:#fafafa"></path><path d="M353.38,387.84a5.5,5.5,0,0,1,.18-1.23,1.94,1.94,0,0,1,.44-.82,1.07,1.07,0,0,1,.73-.3,2,2,0,0,1,1,.33,4.12,4.12,0,0,1,1,.86,5.09,5.09,0,0,1,.73,1.15,6,6,0,0,1,.45,1.34,8.35,8.35,0,0,1,.18,1.43c0,.16,0,.34,0,.53v1.19c0,.19,0,.36,0,.52a5.41,5.41,0,0,1-.18,1.22,1.88,1.88,0,0,1-.44.82,1.08,1.08,0,0,1-.74.3,2.17,2.17,0,0,1-1-.34,4.12,4.12,0,0,1-1-.86,5.47,5.47,0,0,1-.73-1.15,6.49,6.49,0,0,1-.44-1.33,8.62,8.62,0,0,1-.18-1.42c0-.16,0-.34,0-.54v-1.19C353.37,388.16,353.38,388,353.38,387.84Zm3.69,2.18a3.86,3.86,0,0,0-.38-1.61,2.36,2.36,0,0,0-.92-1,.75.75,0,0,0-.91,0,1.61,1.61,0,0,0-.38,1.18c0,.31,0,.66,0,1.05s0,.75,0,1.07a3.86,3.86,0,0,0,.38,1.61,2.32,2.32,0,0,0,.91,1c.38.22.69.24.92,0a1.57,1.57,0,0,0,.38-1.17c0-.31,0-.66,0-1.05S357.08,390.35,357.07,390Z" style="fill:#fafafa"></path><path d="M361.81,394l-.7,3.34a.86.86,0,0,1-.1.25c0,.05-.1.06-.18,0l-.66-.38A.44.44,0,0,1,360,397a1.18,1.18,0,0,1-.1-.36l-1-8.5c0-.05,0-.08,0-.11a.24.24,0,0,1,.07-.2.12.12,0,0,1,.15,0l.61.35a.47.47,0,0,1,.15.16.86.86,0,0,1,.1.32l.68,5.71.6-3a.67.67,0,0,1,.08-.18c0-.07.11-.08.21,0l.66.39a.44.44,0,0,1,.21.25,2.19,2.19,0,0,1,.08.27l.6,3.7.68-4.92c0-.12.05-.19.1-.21a.19.19,0,0,1,.16,0l.6.34a.42.42,0,0,1,.15.19.61.61,0,0,1,.07.28.41.41,0,0,1,0,.1l-1,7.3a.6.6,0,0,1-.09.25c0,.05-.11.05-.2,0l-.65-.38a.4.4,0,0,1-.19-.23,2.28,2.28,0,0,1-.1-.36Z" style="fill:#fafafa"></path><path d="M313.61,370.09l5.81,3.35-5.81-12.3Zm0-13.93,9,19.15,4.24,2.45-13.28-28.13Zm0-25.94V344l16.94,35.87,8.88,5.12V345.12Z" style="fill:#3F3F3F"></path><path d="M313.61,370.09l5.81,3.35-5.81-12.3Zm0-13.93,9,19.15,4.24,2.45-13.28-28.13Zm0-25.94V344l16.94,35.87,8.88,5.12V345.12Z" style="fill:#fff;opacity:0.6000000000000001"></path></g></g><g id="freepik--Coffee--inject-2"><path id="freepik--shadow--inject-2" d="M418.38,327.59c0,2.47,3.76,4.46,8.39,4.46s8.39-2,8.39-4.46-3.75-4.45-8.39-4.45S418.38,325.13,418.38,327.59Z" style="opacity:0.1"></path><path d="M435.85,312.37c3.28,0,6.32,0,6.67,2s-.95,8.16-2.76,9.74-6.1,1-6.1,1v-2a12.76,12.76,0,0,0,4.14-.31c1.43-.53,2.44-6.67,2.44-7.4s-4.72-.56-4.72-.56Z" style="fill:#e6e6e6"></path><path d="M436.17,310.21c-.22-.91-1.12-1.79-2.72-2.48a19.19,19.19,0,0,0-13.36,0c-1.6.7-2.5,1.58-2.72,2.48h-.05c-.62,6,.45,12.89,2.58,16.71a.2.2,0,0,0,0,.08l0,.06h0a4.51,4.51,0,0,0,1.75,1.64,11.22,11.22,0,0,0,10.14,0,4.64,4.64,0,0,0,1.74-1.65h0l0-.05,0-.09c2.12-3.83,3.18-10.75,2.55-16.71Z" style="fill:#f5f5f5"></path><path d="M433.45,307c3.69,2,3.69,5.33,0,7.36a15.4,15.4,0,0,1-13.37,0c-3.69-2-3.69-5.32,0-7.36A15.44,15.44,0,0,1,433.45,307Z" style="fill:#fafafa"></path><path d="M432.43,307.76c3.12,1.59,3.13,4.16,0,5.75a14.11,14.11,0,0,1-11.32,0c-3.13-1.59-3.13-4.16,0-5.75A14.07,14.07,0,0,1,432.43,307.76Z" style="fill:#e6e6e6"></path><path d="M432.43,311.23a5.54,5.54,0,0,1,1.57,1.14,5.74,5.74,0,0,1-1.57,1.14,14.11,14.11,0,0,1-11.32,0,5.54,5.54,0,0,1-1.57-1.14,5.54,5.54,0,0,1,1.57-1.14A14.07,14.07,0,0,1,432.43,311.23Z" style="fill:#37474f"></path></g><g id="freepik--Papers--inject-2"><path id="freepik--shadow--inject-2" d="M360.91,319.07a2.12,2.12,0,0,0,1-.25l31.94-18.41a.93.93,0,0,0,.53-.79.94.94,0,0,0-.53-.79l-3.07-1.77,1.47-.85a.85.85,0,0,0,0-1.57L367,280a2.12,2.12,0,0,0-1-.25,2.09,2.09,0,0,0-1,.25L333,298.44a.85.85,0,0,0,0,1.57l3.07,1.78-1.47.84a1,1,0,0,0-.52.79.93.93,0,0,0,.52.79l25.31,14.61A2.12,2.12,0,0,0,360.91,319.07Z" style="opacity:0.05"></path><path d="M334.38,302.09a.61.61,0,0,1,.36-.5l31.94-18.41a1.89,1.89,0,0,1,1.73,0l25.31,14.61a.62.62,0,0,1,.35.5v.78a.62.62,0,0,1-.35.5l-32,18.41a1.93,1.93,0,0,1-1.72,0l-25.31-14.61a.61.61,0,0,1-.36-.49Z" style="fill:#ebebeb"></path><path d="M393.72,297.79l-25.31-14.61a1.89,1.89,0,0,0-1.73,0l-31.94,18.41a.53.53,0,0,0,0,1l25.31,14.61a1.93,1.93,0,0,0,1.72,0l32-18.41A.53.53,0,0,0,393.72,297.79Z" style="fill:#fff"></path><path d="M360.91,317.41v.77a1.77,1.77,0,0,0,.87-.2l31.93-18.41a.61.61,0,0,0,.36-.5v-.78a.61.61,0,0,1-.36.5L361.78,317.2A1.78,1.78,0,0,1,360.91,317.41Z" style="fill:#e0e0e0"></path><path d="M332.78,297.89a.59.59,0,0,1,.36-.49L365.08,279a2,2,0,0,1,1.73,0l25.31,14.61a.61.61,0,0,1,.36.5v.79a.63.63,0,0,1-.36.49l-31.94,18.41a1.89,1.89,0,0,1-1.73,0l-25.31-14.61a.59.59,0,0,1-.36-.49Z" style="fill:#ebebeb"></path><path d="M392.12,293.59,366.81,279a2,2,0,0,0-1.73,0L333.14,297.4a.52.52,0,0,0,0,1L358.45,313a1.89,1.89,0,0,0,1.73,0l31.94-18.41A.53.53,0,0,0,392.12,293.59Z" style="fill:#fff"></path><path d="M359.31,313.21V314a1.75,1.75,0,0,0,.87-.21l31.93-18.4a.61.61,0,0,0,.36-.5v-.79a.6.6,0,0,1-.36.5L360.18,313A1.75,1.75,0,0,1,359.31,313.21Z" style="fill:#e0e0e0"></path></g></g><g id="freepik--Sofa--inject-2"><g id="freepik--Couch--inject-2"><polygon points="117.87 444.06 119.17 425.45 128.18 420.25 123.03 441.08 117.87 444.06" style="fill:#b16668"></polygon><polygon points="117.87 444.06 112.72 441.08 112.82 421.79 119.17 425.45 117.87 444.06" style="fill:#9a4a4d"></polygon><polygon points="54.71 407.6 56.01 388.99 65.02 383.79 59.87 404.63 54.71 407.6" style="fill:#b16668"></polygon><polygon points="54.71 407.6 49.55 404.63 49.65 385.33 56.01 388.99 54.71 407.6" style="fill:#9a4a4d"></polygon><polygon points="267.48 357.69 266.18 340.58 257.17 345.79 262.32 360.67 267.48 357.69" style="fill:#b16668"></polygon><polygon points="262.32 360.67 257.17 357.69 250.81 342.12 257.17 345.79 262.32 360.67" style="fill:#9a4a4d"></polygon><polygon points="117.87 424.7 268.32 337.85 268.32 343.8 117.87 430.65 117.87 424.7" style="fill:#b16668"></polygon><polygon points="45.69 388.98 117.87 430.65 117.87 424.7 45.69 383.03 45.69 388.98" style="fill:#9a4a4d"></polygon><polygon points="117.87 424.7 268.32 337.85 196.14 296.18 45.69 383.03 117.87 424.7" style="fill:#9a4a4d"></polygon><path d="M268.41,301.2v31.45a11.19,11.19,0,0,1-5,8.73l-1.45.84-.07,0a11.37,11.37,0,0,1-6.3,1.08L129.46,413.23a11.3,11.3,0,0,1-5,8.38l0,0-1.45.84a2.32,2.32,0,0,1-.38.2l-.21.1s0,0-.06,0a11.52,11.52,0,0,1-7.82.36,7.63,7.63,0,0,1-.88-.33l-.14-.06c-.2-.09-.4-.2-.59-.3L47.34,384.62a11.15,11.15,0,0,1-5-8.73l0-68.13a11.2,11.2,0,0,1,5-8.73l140.39-81.09a11.18,11.18,0,0,1,10.08,0l4.11,2.36a13.42,13.42,0,0,1,5.81,8.69l4,33.62,51.7,29.86A11.17,11.17,0,0,1,268.41,301.2Z" style="fill:#37474f"></path><path d="M201.9,220.31l-4.1-2.37a11.12,11.12,0,0,0-10.08,0L47.33,299c-.3.17-.62.39-.52.32a11.58,11.58,0,0,0-4.47,7.55c.37-2.57,2.47-3.5,5-2.06l4.11,2.38a11.18,11.18,0,0,0,10.08,0l140.39-81.1C204.69,224.52,204.69,221.92,201.9,220.31Z" style="fill:#455a64"></path><path d="M268.41,301.21v31.44a11.16,11.16,0,0,1-5,8.73l-1.45.85-.07,0a10.76,10.76,0,0,1-5.9,1.11,9.84,9.84,0,0,1-4.11-1.15l-46.65-26.94a11.19,11.19,0,0,1-5-8.73V275.11a11.15,11.15,0,0,1,5-8.73l6.48-3.76,51.7,29.86A11.17,11.17,0,0,1,268.41,301.21Z" style="fill:#263238"></path><path d="M211.67,262.62l-6.49,3.76c-2.77,1.6-2.77,4.22,0,5.82l46.66,26.93a11.19,11.19,0,0,1,5,8.73v31.46c0,3.2,2.27,4.51,5,2.91l1.45-.85a11.17,11.17,0,0,0,5-8.72V301.2a11.19,11.19,0,0,0-5-8.73Z" style="fill:#455a64"></path><path d="M256.88,307.86v31.46c0,3.2,2.27,4.51,5,2.91l1.45-.85a11.17,11.17,0,0,0,5-8.72V301.2a10.33,10.33,0,0,0-1.48-5L255.4,302.9A10.33,10.33,0,0,1,256.88,307.86Z" style="fill:#37474f"></path><path d="M254.78,343.38a11.67,11.67,0,0,1-1.84,2.78,21.89,21.89,0,0,1-4.74,3.31c-17.73,10.24-32.39,18.74-50.12,29a5.53,5.53,0,0,1-5,0L176.65,369l-32.79-18.93a9.47,9.47,0,0,1,0-16.74l18.6-10.74,14.19-8.18,17.29-10a11.18,11.18,0,0,1,10.08,0l46.65,26.94c2.79,1.61,5,2.85,5,6.55A18.68,18.68,0,0,1,254.78,343.38Z" style="fill:#263238"></path><path d="M198.09,367.53l55.1-31.86c1.4-.8,2.52-.15,2.52,1.46v5.1a5.54,5.54,0,0,1-2.52,4.36l-55.11,31.85c-1.39.81-2.52.16-2.52-1.45v-5.1A5.57,5.57,0,0,1,198.09,367.53Z" style="fill:#37474f"></path><path d="M192.26,379.47a12.25,12.25,0,0,1-1.84,2.77,21.93,21.93,0,0,1-4.74,3.32c-17.73,10.24-32.39,18.74-50.12,29a5.53,5.53,0,0,1-5,0l-16.39-9.46L81.34,386.14a9.47,9.47,0,0,1,0-16.74l18.6-10.74,14.19-8.18,17.29-10a11.27,11.27,0,0,1,10.08,0l46.65,26.95c2.78,1.61,5,2.85,5,6.54A18.69,18.69,0,0,1,192.26,379.47Z" style="fill:#263238"></path><path d="M135.56,403.62l55.11-31.86c1.39-.81,2.52-.15,2.52,1.45v5.1a5.59,5.59,0,0,1-2.52,4.37l-55.11,31.85c-1.39.81-2.52.15-2.52-1.45V408A5.56,5.56,0,0,1,135.56,403.62Z" style="fill:#37474f"></path><path d="M193.37,286.57l-49.5,28.61a11.13,11.13,0,0,0-5,8.73v3.39a11.13,11.13,0,0,0,5,8.73L190.52,363a11.18,11.18,0,0,0,10.08,0l49.5-28.61a11.13,11.13,0,0,0,5-8.73v-3.4a11.13,11.13,0,0,0-5-8.73l-46.65-26.93A11.12,11.12,0,0,0,193.37,286.57Z" style="fill:#37474f"></path><path d="M195.57,349.14v15a10.3,10.3,0,0,1-5-1.21L143.86,336a11.15,11.15,0,0,1-5-8.73v-3.39a11.28,11.28,0,0,1,4.53-8.4c-2.26,1.62-2.08,4,.51,5.49l46.67,26.94A10.32,10.32,0,0,0,195.57,349.14Z" style="fill:#263238"></path><path d="M200.6,347.94l49.5-28.62c2.79-1.6,2.79-4.21,0-5.82l-46.65-26.93a11.12,11.12,0,0,0-10.08,0l-49.5,28.61c-2.79,1.61-2.79,4.21,0,5.82l46.65,26.94A11.18,11.18,0,0,0,200.6,347.94Z" style="fill:#455a64"></path><path d="M130.84,322.65l-49.5,28.62a11.13,11.13,0,0,0-5,8.73v3.39a11.16,11.16,0,0,0,5,8.73L128,399.05a11.12,11.12,0,0,0,10.08,0l49.5-28.61a11.13,11.13,0,0,0,5-8.73v-3.39a11.16,11.16,0,0,0-5-8.73l-46.66-26.94A11.18,11.18,0,0,0,130.84,322.65Z" style="fill:#37474f"></path><path d="M133,385.22v15a10.24,10.24,0,0,1-5-1.21L81.34,372.12a11.16,11.16,0,0,1-5-8.73V360a11.28,11.28,0,0,1,4.53-8.4c-2.26,1.61-2.08,4,.51,5.49L128,384A10.26,10.26,0,0,0,133,385.22Z" style="fill:#263238"></path><path d="M138.08,384l49.5-28.61c2.78-1.61,2.78-4.21,0-5.82l-46.66-26.94a11.18,11.18,0,0,0-10.08,0l-49.5,28.62c-2.78,1.6-2.78,4.21,0,5.82L128,384A11.12,11.12,0,0,0,138.08,384Z" style="fill:#455a64"></path><g id="freepik--Cushion--inject-2"><path d="M104.64,296.28c-3.22-.32-5.9,3.4-11.28,6-10,4.91-14.53,9.36-19.2,14.8s-6.43,4.53-7.86,7.92,2.52,4.84,4.4,9.65c3.17,8.11,7.1,13.55,11.2,16.93,7.24,6,6.14,10.12,9.43,10.08,3.51,0,3.26-3.05,8.77-5.19,13.05-5.07,18.4-9.58,24.43-18.5,2.36-3.49,5.35-3.2,5.92-6.56.29-1.68-2.16-2.59-4.37-7.87-3.67-8.77-9.52-17-15.24-21.28C108.35,300.43,107.93,296.61,104.64,296.28Z" style="fill:#3F3F3F"></path><path d="M104.64,296.28c-3.22-.32-5.9,3.4-11.28,6-10,4.91-14.53,9.36-19.2,14.8s-6.43,4.53-7.86,7.92,2.52,4.84,4.4,9.65c3.17,8.11,7.1,13.55,11.2,16.93,7.24,6,6.14,10.12,9.43,10.08,3.51,0,3.26-3.05,8.77-5.19,13.05-5.07,18.4-9.58,24.43-18.5,2.36-3.49,5.35-3.2,5.92-6.56.29-1.68-2.16-2.59-4.37-7.87-3.67-8.77-9.52-17-15.24-21.28C108.35,300.43,107.93,296.61,104.64,296.28Z" style="opacity:0.30000000000000004"></path><path d="M69.85,330.68c2.75,3.9,2.39,7.8,8.06,15,5.44,6.9,9.38,8.83,11,11.93,1.36,2.57,3.21,3.77,3.65.77s-1.92-11.62-7.4-19c-6.32-8.48-10.35-11.72-13.08-13C67.82,324.46,67.68,327.6,69.85,330.68Z" style="opacity:0.2"></path><path d="M100.32,353.18c-3.6,1.25-3.76,4.44-5.56,6.9a14.2,14.2,0,0,1,5.34-3.58,61.68,61.68,0,0,0,13.83-7.05C109.32,351.87,102.93,352.28,100.32,353.18Zm22.54-16.54c-2.23,2.06-2,5.72-4.7,9.24a50.69,50.69,0,0,0,6.37-7.88c2.15-3.19,4.83-3.23,5.72-5.77C128.27,334.73,125.54,334.17,122.86,336.64Z" style="opacity:0.2"></path><path d="M100.15,304.05a37.35,37.35,0,0,0-20.64,11.31,6.08,6.08,0,0,0-1.41,4.45,6,6,0,0,0,3.1,4.86c1.81,1,4.45,1,6.34.79,4-.51,6.32-1.55,11.46-1.64a11.78,11.78,0,0,1,5.42,1.38c2.54,1.41,4.43,3,6.65,4.19,3.06,1.64,8.49.89,10.38-1s2.47-5,.66-8.84C118.1,311.12,110.63,302.9,100.15,304.05Z" style="fill:#3F3F3F;opacity:0.30000000000000004"></path></g><path d="M117.94,419.56V388.11a11.19,11.19,0,0,0-5-8.73L61.2,349.53l-4-33.62a13.34,13.34,0,0,0-5.81-8.68l-4.1-2.37c-2.77-1.6-5-.29-5,2.91v68.12a11.19,11.19,0,0,0,5,8.73l65.57,37.85C115.67,424.07,117.94,422.77,117.94,419.56Z" style="fill:#263238"></path><path d="M129.47,381.44V412.9c0,.1,0,.22,0,.33a11.3,11.3,0,0,1-5,8.38l0,0-1.45.84a2.32,2.32,0,0,1-.38.2l-.21.1s0,0-.06,0l-.41.15a11.73,11.73,0,0,1-7.41.21,7.63,7.63,0,0,1-.88-.33c2.43,1,4.3-.36,4.31-3.26h0V388.11a11.19,11.19,0,0,0-5-8.73l-9.15-5.28L61.2,349.54l6.5-3.76a11.18,11.18,0,0,1,10.08,0l37.51,21.66,9.14,5.27A11.18,11.18,0,0,1,129.47,381.44Z" style="fill:#455a64"></path><path d="M117.94,388.11v31.45h0c0,2.9-1.88,4.26-4.31,3.26a7.63,7.63,0,0,0,.88.33,11.73,11.73,0,0,0,7.41-.21l.41-.15s0,0,.06,0l.21-.1a2.32,2.32,0,0,0,.38-.2l1.45-.84,0,0a11.3,11.3,0,0,0,5-8.38c0-.11,0-.23,0-.33V381.44a10.31,10.31,0,0,0-1.47-5l-11.54,6.66A10.4,10.4,0,0,1,117.94,388.11Z" style="fill:#37474f"></path></g></g><g id="freepik--character-2--inject-2"><g id="freepik--character--inject-2"><g id="freepik--top--inject-2"><path d="M209.64,244.33a5.79,5.79,0,0,0,.06-.83c.07-4-2.46-7.67-5.84-9.74-3-1.85-6.22-3.2-8.91-5.59l7.63-5.11c4.68-2.75,4.19-9,2.9-12.19-2.88-7.15-10.83-9.56-15.69-9.63-9.22-.14-13.62,2.42-14.38,7.22-3.41-.14-8.43,3.48-8.61,13.79a19.2,19.2,0,0,1-.89,5.93,8.1,8.1,0,0,1-2.95,4c-2.6,2.1-5.8,3.75-7.47,6.77a8.46,8.46,0,0,0,2.66,11.11c.14.1.3.2.35.36a.76.76,0,0,1,0,.47,23.56,23.56,0,0,0-1,4.83c-.36,5.24,2.8,10.45,7.93,11.94a13.05,13.05,0,0,0,10.89-2,4.62,4.62,0,0,1,2.45-1.14,4.51,4.51,0,0,1,1.74.5c5.74,2.36,12.44.65,17.75-2.57a10,10,0,0,0,4.1-3.95c1-2.13.62-4.63.21-7C206.22,251.37,209.19,248,209.64,244.33Z" style="fill:#f0997a"></path><g id="freepik--arm--inject-2"><path d="M240.76,246.13a35.39,35.39,0,0,0,1.34-4.74c.6-4.17,1.75-5.25,4.28-8.5.43-.56.87-1.11,1.31-1.66a8,8,0,0,0,.62-.82c.17-.27.32-.5.71-.39a1.12,1.12,0,0,1,.65.54,3.42,3.42,0,0,1,.24,2.77,16,16,0,0,1-1.17,2.61c-.32.66.5.51.88.38,1.85-.65,3.81-3,5-4.53a25.91,25.91,0,0,1,2.38-2.94,3.9,3.9,0,0,1,2.08-1c.53-.06,1,.07,1.05.73a2.76,2.76,0,0,1-.39,1.16,2.9,2.9,0,0,0-.4,2.32,6.83,6.83,0,0,1,.53,1.62,20.22,20.22,0,0,1-.34,2.14c.37.15.56.78.28,1.53a18,18,0,0,1-2.82,5.35,17.6,17.6,0,0,1-4.73,4.25c-1.05.7-2.81,1.59-3.39,2.75s-2.25,6.06-3.92,11.1c-2.94,8.87-3.73,12.11-6.93,14.92-2.24,2-5.87,1.58-12.4-2.22-10.75-6.25-21.1-12.78-21.1-12.78l-.91-17.24c5.86.33,7.62,1.56,13.72,6.35,7.43,5.81,14.17,11.23,14,11.33S240.29,247.23,240.76,246.13Z" style="fill:#ffbda7"></path><path d="M215.87,267.66a12.69,12.69,0,0,0-1-11c-1.45-2.63-5.31-5.42-5.31-5.42l1.83,2.54-2.63,9.56C210.71,264.52,213.14,266,215.87,267.66Z" style="fill:#f0997a"></path><path d="M231.42,261.14c-2.51,3.4-1.94,8.84-1.94,8.84a11.78,11.78,0,0,1,.72-9.91Z" style="fill:#f0997a"></path><path d="M248.72,238.39a7.42,7.42,0,0,1-1.9,6.56,5,5,0,0,0,2.41-2.68A4.59,4.59,0,0,0,248.72,238.39Z" style="fill:#f0997a"></path></g><path d="M200.22,243.26c2.87.19,3.43.2,3.43.2s7.15,9.11,8.81,11.87,5.56,10.95-2.7,16.77L208,285.41l-35.29,1.1L169,273.71l.55-25.76,3.24-1.58L193,247.5Z" style="fill:#ffbda7"></path><path d="M201.68,263.17c-.13-.58-.29-1.14-.47-1.71a17.72,17.72,0,0,0-1.53-3.31,15.59,15.59,0,0,0-2.5-3.17,11.45,11.45,0,0,0-2.64-2.17c-.07,0-.09.1-.06.14a27.1,27.1,0,0,1,2.53,2.61,22.35,22.35,0,0,1,1.89,3,18.54,18.54,0,0,1,1.24,3c.16.52.3,1,.41,1.58a10.78,10.78,0,0,0,.34,1.71c.16.37.94.78,1,.15A5.22,5.22,0,0,0,201.68,263.17Z" style="fill:#f0997a"></path><g id="freepik--Chest--inject-2"><path d="M189.26,256.43A11.93,11.93,0,0,1,200.8,262a9.78,9.78,0,0,1,2.82-6.16c1.62-1.59,5.25-3,7.81-2.07a12.56,12.56,0,0,1,4.18,7.24,10.75,10.75,0,0,1-5.54,11.41l-.67,9.11.39,6.58c-5.77,11.12-35.35,8.46-38.68,1.37,1.25-2.46.54-3.84,0-6.27-1.09-4.67-2.74-10.08-2.74-10.08a18.59,18.59,0,0,0,4.84-3c1.76-1.53,2.49-3,3.83-4.81C178.79,263,183.12,257,189.26,256.43Z" style="fill:#3F3F3F"></path><path d="M200.05,271.06c-3.06,5.43-12.21,7.56-19.58,3.45C183.27,280.19,198.39,280.55,200.05,271.06Z" style="opacity:0.2"></path></g><g id="freepik--head--inject-2"><path d="M177.37,232.28a4.7,4.7,0,0,1-4.24-1.62c-2.23-2.45-2.44-4.95-1.4-6.62.86-1.37,3-2.24,4.44-1.32s1.63,1.8,2.23,2.92,2.9,1,3.45-3.5c.52-4.21,1.15-8.06,3.21-10,3.08-2.83,6.5-2.37,7.73-.7,1.25-2,3.16-2.76,5.26-1.63s3.71,4.26,4.44,12.24c.74,8.14-1,13.91-2.82,15.28-1.41,1-3.21,1.26-6.27,1.4,0,0,.1,1.86.12,2.54s.21,1.34,1.55,1.46l5.15.5c1.55,3.28.13,6.66-7.74,7.77s-16.34-.8-19.72-4.66c0,0,2.77-1.46,4.39-2.38,1.91-1.08,2.48-1.86,2.46-4.44,0-2.31-.5-8.55-.5-8.55S178.94,232,177.37,232.28Z" style="fill:#ffbda7"></path><path d="M190,222.8a1.34,1.34,0,1,1-.87-1.73A1.36,1.36,0,0,1,190,222.8Z" style="fill:#263238"></path><path d="M188.68,221c-.85,0-1.35,1.16-2.16.71a1.21,1.21,0,0,0,1.64.66C188.54,222.2,188.68,221,188.68,221Z" style="fill:#263238"></path><path d="M200.5,219l-2.86-1.46a1.54,1.54,0,0,1,2.11-.74A1.69,1.69,0,0,1,200.5,219Z" style="fill:#263238"></path><path d="M197.16,222.37a1.34,1.34,0,1,0,2.52-.93,1.36,1.36,0,0,0-1.74-.84A1.38,1.38,0,0,0,197.16,222.37Z" style="fill:#263238"></path><path d="M198.43,220.52c.84,0,1.39,1.08,2.18.59a1.21,1.21,0,0,1-1.6.75C198.62,221.69,198.43,220.52,198.43,220.52Z" style="fill:#263238"></path><path d="M188.93,218,186,219.81a1.65,1.65,0,0,1,.48-2.35A1.81,1.81,0,0,1,188.93,218Z" style="fill:#263238"></path><path d="M187.74,212.61a7.4,7.4,0,0,0-.76,3.12c-.08,1.1-.08,3.67-.76,5.23a4,4,0,0,1-2.95,2.51,5.28,5.28,0,0,1-2.59-.16c-.51-.22-1.55-.52-1.86-2.64a3.21,3.21,0,0,0,1.07.7,3.48,3.48,0,0,0,1,.19,2.87,2.87,0,0,0,2.37-1.45c.9-1.46.76-3.37,1-5,.29-2.08.56-4.45,2.39-5.55a3.86,3.86,0,0,1,5.23,1.14C189.62,209.85,188.29,211.58,187.74,212.61Z" style="fill:#f0997a"></path><path d="M189,229.54l4.48,1.26a2.34,2.34,0,0,1-3.09,1.54A2.18,2.18,0,0,1,189,229.54Z" style="fill:#b16668"></path><path d="M191.71,232.42a2.43,2.43,0,0,0-2.54-2.07,1.46,1.46,0,0,0-.22,0,2,2,0,0,0,1.47,2A2.6,2.6,0,0,0,191.71,232.42Z" style="fill:#f0997a"></path><polygon points="192.75 219.91 193.66 227.9 198 226.23 192.75 219.91" style="fill:#f0997a"></polygon><path d="M193.4,238.76a28.24,28.24,0,0,1-8.69-1.6c-1-.4-2.42-2.18-3.58-4.18,0,0,.89,4,3.1,5.29,3.36,2,9.26,2.1,9.26,2.1Z" style="fill:#f0997a"></path></g></g><g id="freepik--bottom--inject-2"><path d="M237.3,344.56S223.34,368.93,221,374c-1.72,3.73-3.09,6.5-3.6,9.49a35.24,35.24,0,0,0,.43,10.08s1.52,6.39.41,6.32-9.77-3.88-12.79-7.07-1.64-6.51.35-12.88,5.65-15.25,5.65-15.25a4.33,4.33,0,0,0,.92-.74c1.42-1.36,7-21,8.17-25.44Z" style="fill:#ffbda7"></path><path d="M215.83,354.67l7.6,14.61c1.72-3.18,4-7.3,6.24-11.26-.41-4.53-.95-10.22-1.48-14.34-.12-.94-.25-1.79-.38-2.58l-7.26-2.64C219.87,341,217.77,348.47,215.83,354.67Z" style="fill:#f0997a"></path><path d="M204.57,370.24c-.61,1.41-.49,3.57-1.32,5.87a42.46,42.46,0,0,1-3.58,7.52c-1.73,2.93-2,3.34-2,3.34l.91.54,3.61-6.08c1.1-1.85,2.33-3,3.33-2.68C205.54,378.75,209,372.84,204.57,370.24Z" style="fill:#3F3F3F"></path><path d="M204.57,370.24c-.61,1.41-.49,3.57-1.32,5.87a42.46,42.46,0,0,1-3.58,7.52c-1.73,2.93-2,3.34-2,3.34l.91.54,3.61-6.08c1.1-1.85,2.33-3,3.33-2.68C205.54,378.75,209,372.84,204.57,370.24Z" style="opacity:0.30000000000000004"></path><path d="M212,364c-1.48,1.22-3.88,1.91-6,3.86a5.74,5.74,0,0,0-1.69,3.09c.28,1.18.59,1.72.83,2.55a8.76,8.76,0,0,1,.51,4.19,64.69,64.69,0,0,1-2,8.63c-.84,2.8-1.46,4.42,0,6.86,1.1,1.9,5.58,5.9,8.89,8.08,4.52,3,7.86,1.69,7.13-1.11s-1.5-5.89-1.82-6.59a9.89,9.89,0,0,0-4.71-1.88c-3.27-.37-5,.67-6.95-2.28-1.79-2.67-.62-8.33,3.39-14.85C214.13,367.1,212,364,212,364Z" style="fill:#3F3F3F"></path><path d="M212,364c-1.48,1.22-3.88,1.91-6,3.86a5.74,5.74,0,0,0-1.69,3.09c.28,1.18.59,1.72.83,2.55a8.76,8.76,0,0,1,.51,4.19,64.69,64.69,0,0,1-2,8.63c-.84,2.8-1.46,4.42,0,6.86,1.1,1.9,5.58,5.9,8.89,8.08,4.52,3,7.86,1.69,7.13-1.11s-1.5-5.89-1.82-6.59a9.89,9.89,0,0,0-4.71-1.88c-3.27-.37-5,.67-6.95-2.28-1.79-2.67-.62-8.33,3.39-14.85C214.13,367.1,212,364,212,364Z" style="opacity:0.15"></path><path d="M227.83,362.12c1.7,15.62,2.83,25.61,3.85,29.6a56.57,56.57,0,0,0,3.53,10.64,27.44,27.44,0,0,0,5.48,7s5,4.25,4.06,4.86-10.16,2.64-14.49,1.86-5.17-4.28-7.33-10.6-4.46-15.64-4.46-15.64a4.19,4.19,0,0,0,.3-1.14c.35-1.93-2.74-9.09-4.43-13.4Z" style="fill:#ffbda7"></path><path d="M216.22,398.45c.34,1.5,1.72,3.17,2.4,5.52a41,41,0,0,1,1.57,8.18c.33,3.38.38,3.86.38,3.86l1.05-.1s-.48-4.89-.68-7,.09-3.81,1.1-4.14C222,404.73,221.3,398,216.22,398.45Z" style="fill:#3F3F3F"></path><path d="M216.22,398.45c.34,1.5,1.72,3.17,2.4,5.52a41,41,0,0,1,1.57,8.18c.33,3.38.38,3.86.38,3.86l1.05-.1s-.48-4.89-.68-7,.09-3.81,1.1-4.14C222,404.73,221.3,398,216.22,398.45Z" style="opacity:0.30000000000000004"></path><path d="M218.54,389c-.48,1.86-2,3.84-2.55,6.65a5.8,5.8,0,0,0,.47,3.49c.91.78,1.49,1,2.17,1.57a8.72,8.72,0,0,1,2.89,3.07,63.35,63.35,0,0,1,3.46,8.17c1,2.75,1.44,4.43,4,5.55,2,.88,8,1.46,12,1.26,5.4-.27,7.34-3.28,5.1-5.11s-4.71-3.87-5.37-4.24a9.88,9.88,0,0,0-4.91,1.27c-2.86,1.63-3.62,3.49-6.95,2.27-3-1.1-5.43-6.36-6.05-14C222.07,390.27,218.54,389,218.54,389Z" style="fill:#3F3F3F"></path><path d="M244,317.57c-2.51-3.42-4.1-5.84-14.66-14.81-9.91-8.42-14.14-11.18-14.14-11.18l-5.77-10c-1.33,10.81-26,17.37-37.88,6.89-1.84,4.63-3.61,8.93-4.16,13.36a27.7,27.7,0,0,0,.9,12.06c2.23,6.78,6.39,12.39,17.06,19.26,8.61,5.54,16.41,10.51,18.47,12,2.56,1.81,1.72,4.24,2.23,8.75a56.25,56.25,0,0,0,3.53,13.22c1.67,4.2,4.4,9.49,7.65,16.78,3.92,1.47,10-.95,12.63-4,0,0-1.28-13.48-2.46-24.92a11.94,11.94,0,0,0,4,0s3.87-6.43,10.05-17C246.83,328.78,248,323,244,317.57Zm-21.49,14.24c-.55-.83-1.12-1.6-1.7-2.34l-1-1.24,3.58,2.25A5.51,5.51,0,0,0,222.49,331.81Z" style="fill:#f5f5f5"></path><path d="M229.41,355.13a12.54,12.54,0,0,1-2-.17c-.68-6.66-1.33-12.63-1.68-14.84a20.09,20.09,0,0,0-3.22-8.31,5.3,5.3,0,0,1,.91-1.33c2.3,3.26,3.79,5.25,4.8,13.2C228.61,347,229.05,351.25,229.41,355.13Z" style="fill:#e0e0e0"></path><path d="M223.39,330.48c-.94-1.09-14.33-17.6-16.18-19.88a11.33,11.33,0,0,0,3.23-7.09,13.25,13.25,0,0,1-6.34,7.18l1.09,1.08c2.95,3.09,9.4,10,14.6,16.45Z" style="fill:#e0e0e0"></path></g><path id="freepik--arm--inject-2" d="M212.78,283.65c2.16-.62,3.85-2.46,6.49-4s4.61-2.24,5.51-3.41,2.14,1.07,1.07,2.63-3.11,2.51-2.47,3c1,.75,3.29-.35,4.18-.71,2.75-1.1,5.48-3.36,8.57-3.27a1.28,1.28,0,0,1,.9.3,1,1,0,0,1,0,1.26,6.72,6.72,0,0,1-1,.95,1.52,1.52,0,0,0-.56,1.18c0,.41.35.76.37,1.17a1.4,1.4,0,0,1-.22.76,5,5,0,0,1-.88,1.17,7.59,7.59,0,0,0-.86.84,7.87,7.87,0,0,0-.81,2c-1.1,2.83-4.32,4.2-7,5.16-5.64,2.05-8.53,1.31-11.95,2s-18.1,2.86-25.7,3.67c-8,.85-8.62-.74-12.73-7.54s-10.42-19.2-12.66-25.11c-3.34-8.84,1.08-15.44,6.42-17.67,2.91.47,7.9,6.35,11,18.08l8.57,17.24S210.61,284.27,212.78,283.65Z" style="fill:#ffbda7"></path></g></g><g id="freepik--character-1--inject-2"><g id="freepik--character--inject-2"><g id="freepik--bottom--inject-2"><path d="M166.43,394.9s-5.24,11.51-5.67,16.12c-.45,4.8-1.67,6.34-1.07,11.61.14,1.14.64,3.45.76,4.38a1.37,1.37,0,0,1-1.31,1.66c-2.1.35-5.41-3.71-6.89-8a126.59,126.59,0,0,1-3.53-15.21,6.48,6.48,0,0,1,.79-3.34,10.15,10.15,0,0,1,1-1.71c.77-2.06,1.26-6,2-8.76Z" style="fill:#c8856a"></path><path d="M144.46,409.64a4.84,4.84,0,0,0-.62,1.55c-.09,1,1.95,4.21,2.75,5.39a7.71,7.71,0,0,1,1.35,5.54,13.32,13.32,0,0,0,2.87,8.69A21.19,21.19,0,0,0,161,438.09c5,1.76,6.89-.71,6.89-.71s1.67-2.38.77-3.42S144.46,409.64,144.46,409.64Z" style="fill:#263238"></path><path d="M150.54,400.37c-.15,0-.42-.06-.84.4-.16.17-1.17,2.42-2,3.58s-2.92,3.36-3.25,5.29c1,3.8,4.44,6.56,4.83,10.13s.28,7.68,5.56,12.24,10.86,5.23,12.92,4.16,2-3.23-.68-7.45c-2.81-4.49-4.44-14-4.44-14a32.25,32.25,0,0,1-.36-4,26.7,26.7,0,0,1,.53-4,2.89,2.89,0,0,0-.18-1.82,3,3,0,0,0-1.46-1.09,12.49,12.49,0,0,0-2.76-1.06,4.44,4.44,0,0,0-2.9.23c-.64.31-1.18.83-1.85,1.08a2.57,2.57,0,0,1-2.65-.59,2.22,2.22,0,0,1-.63-2.49A5.66,5.66,0,0,1,150.54,400.37Z" style="fill:#455a64"></path><path d="M151.8,428.4a8.69,8.69,0,0,1,8.07-3.95c5.79.25,7.67,3.28,8.48,5,1,2.11,1.91,5.89-.52,6.87-2.62,1.05-5.6.57-10.2-2S151.8,428.4,151.8,428.4Z" style="fill:#fafafa"></path><path d="M153.55,411a.58.58,0,0,0,.53,0c.91-.42,5.68-1.22,8.34,1.45.36-.27.31-.8-.12-1.56-3.14-2.17-7.65-1.44-8.75-.93a.57.57,0,0,0,0,1Z" style="fill:#fafafa"></path><path d="M162.88,415.87a1.82,1.82,0,0,0-.27-1.6,10.84,10.84,0,0,0-8.37-.67.57.57,0,0,0,0,1,.58.58,0,0,0,.53,0C155.66,414.23,160.19,413.48,162.88,415.87Z" style="fill:#fafafa"></path><path d="M164.92,423.79a3.29,3.29,0,0,0-.65-2.13c-3.14-2.06-7.55-1.34-8.63-.84a.55.55,0,0,0-.26.76.59.59,0,0,0,.26.26.58.58,0,0,0,.53,0C157.13,421.42,162.39,420.55,164.92,423.79Z" style="fill:#fafafa"></path><path d="M155,418.23a.56.56,0,0,0,.52,0c.91-.41,5.58-1.19,8.25,1.36a2,2,0,0,0-.42-1.73,10.82,10.82,0,0,0-8.36-.67.54.54,0,0,0-.25.76A.51.51,0,0,0,155,418.23Z" style="fill:#fafafa"></path><path d="M171.14,406s1.93,15.5,4,21.35,4.27,8.08,8,12.15c.82.88,2.68,2.51,3.35,3.23a1.42,1.42,0,0,1-.07,2.2c-1.56,1.6-8.38,2.21-12.31-.53s-7.64-8.74-10-11c-.89-.84-1.73-1.7-2.53-2.61s-.6-1.76-.7-2.77c-.05-.49,0-1.84,0-1.84-.61-2.39-2.16-6.11-3-8.42Z" style="fill:#c8856a"></path><path d="M160,437a5.16,5.16,0,0,0,.24,1.74c.41.92,3.94,2.82,5.29,3.49a8,8,0,0,1,4.08,4.34,13.81,13.81,0,0,0,7.1,6.42,22.06,22.06,0,0,0,13.06,1.36c5.46-1,5.91-4.19,5.91-4.19s.29-3-1.07-3.51S160,437,160,437Z" style="fill:#263238"></path><path d="M160.71,425.42c-.14.07-.42.16-.56.79-.05.25.18,2.81,0,4.29s-.92,4.56-.23,6.49c2.89,2.94,7.43,3.68,9.62,6.73S173.8,450.57,181,452s12.59-.85,13.91-2.88.12-4-4.46-6.44c-4.87-2.63-11.27-10.46-11.28-10.47a32.28,32.28,0,0,1-2.41-3.49,26.86,26.86,0,0,1-1.56-3.88,3.15,3.15,0,0,0-1.1-1.56,3.22,3.22,0,0,0-1.9-.24,13.17,13.17,0,0,0-3.06.46,4.62,4.62,0,0,0-2.52,1.71c-.42.61-.64,1.36-1.12,1.93a2.69,2.69,0,0,1-2.72.84,2.32,2.32,0,0,1-1.86-1.94S160.71,425.42,160.71,425.42Z" style="fill:#455a64"></path><path d="M176.33,450.29a9.09,9.09,0,0,1,5.3-7.77c5.4-2.75,8.68-1,10.33.22,2,1.42,4.77,4.37,3.06,6.52-1.84,2.31-4.8,3.41-10.3,3.47S176.33,450.29,176.33,450.29Z" style="fill:#fafafa"></path><path d="M169,433.55a.61.61,0,0,0,.49-.25c.61-.86,4.54-4.05,8.33-3,.2-.43-.12-.89-.9-1.35-4-.36-7.72,2.63-8.46,3.66a.59.59,0,0,0,.16.83A.66.66,0,0,0,169,433.55Z" style="fill:#fafafa"></path><path d="M179.94,433.17a1.87,1.87,0,0,0-1.07-1.32,11.33,11.33,0,0,0-8,3.7.59.59,0,0,0,.16.83.69.69,0,0,0,.37.1.64.64,0,0,0,.49-.26C172.53,435.4,176.26,432.37,179.94,433.17Z" style="fill:#fafafa"></path><path d="M185.89,439.32a3.43,3.43,0,0,0-1.69-1.6c-3.92-.26-7.57,2.67-8.3,3.68a.59.59,0,0,0,.16.83.66.66,0,0,0,.38.1.61.61,0,0,0,.49-.25C177.57,441.18,181.92,437.68,185.89,439.32Z" style="fill:#fafafa"></path><path d="M173.94,439.41a.65.65,0,0,0,.49-.26c.61-.84,4.46-4,8.21-3a2.14,2.14,0,0,0-1.27-1.37,11.33,11.33,0,0,0-8,3.71.57.57,0,0,0,.16.82A.62.62,0,0,0,173.94,439.41Z" style="fill:#fafafa"></path><path d="M146,323c5.68,4.52,22.79,18.67,30.76,26.66A16.34,16.34,0,0,1,181,365c-2,8.43-13.09,33.5-13.09,33.5C157.57,401.1,152.7,392,152.7,392l-15.56-38.75Z" style="fill:#3F3F3F"></path><path d="M146,323c5.68,4.52,22.79,18.67,30.76,26.66A16.34,16.34,0,0,1,181,365c-2,8.43-13.09,33.5-13.09,33.5C157.57,401.1,152.7,392,152.7,392l-15.56-38.75Z" style="fill:#fff;opacity:0.30000000000000004"></path><path d="M168.82,395.26c-7.23-6.54-33.31-48.2-33.31-48.2s.14-.49,2.6-2.67c5.77-3.43,10.54-9.88,10.54-9.88.45,5.33-2.33,8.76-4.18,11.39,1.83,1.73,10.1,8.84,17.33,15.05a18.81,18.81,0,0,1,5.06,9.31C168.07,378.4,169.06,393.64,168.82,395.26Z" style="fill:#3F3F3F"></path><path d="M148.38,325.53l-5.63,1.4L99.3,333.12c.81,8.44,1.83,14.37,3.79,18.48s4.47,9,15.07,14.79c10.21,5.54,23.18,11.87,25.67,13.19,1.88,1,2.79,3.27,3.46,8.27.7,5.25.64,9.36,5.36,20.5,4.62,10.92,6.24,12.56,6.24,12.56s8.81.53,14.18-3.82c0,0-4.63-35.36-5.88-42a21.22,21.22,0,0,0-6.6-12.11c-3.8-3.64-19.25-16.63-19.25-16.63S152,337.47,148.38,325.53Z" style="fill:#3F3F3F"></path><path d="M148.38,325.53l-5.63,1.4L99.3,333.12c.81,8.44,1.83,14.37,3.79,18.48s4.47,9,15.07,14.79c10.21,5.54,23.18,11.87,25.67,13.19,1.88,1,2.79,3.27,3.46,8.27.7,5.25.64,9.36,5.36,20.5,4.62,10.92,6.24,12.56,6.24,12.56s8.81.53,14.18-3.82c0,0-4.63-35.36-5.88-42a21.22,21.22,0,0,0-6.6-12.11c-3.8-3.64-19.25-16.63-19.25-16.63S152,337.47,148.38,325.53Z" style="fill:#fff;opacity:0.30000000000000004"></path></g><g id="freepik--top--inject-2"><path d="M133.67,271.52c8.06,1.22,10.78,2.31,15.21,9.24s9.41,19.56,12.15,27.07l-16.44.6Z" style="fill:#c8856a"></path><path d="M131.84,270.54c6.8.29,10.5,1.16,14.35,5,2.54,2.57,4.57,6.5,6.72,11.5,3.1,7.23,4.89,12.32,4.89,12.32s-5.62,5-18,6.34l-5.39-17.17Z" style="fill:#3F3F3F"></path><path d="M143.66,291.16c-.1-14.84-9.44-20.49-11.82-20.62-4.92-.27-18-.67-18-.67-3.37,1.08-15.07,5.72-15.07,5.72a132.34,132.34,0,0,0-2,34.58c.82,9.51,1.48,21.73,3.19,32.2,22.81,6.77,44.32-7,48.57-19.54C144.52,316.21,143.74,302.18,143.66,291.16Z" style="fill:#f5f5f5"></path><g id="freepik--head--inject-2"><path d="M107.36,237.38s-2.58.13-4.34,3.27c-.89,1.58-1.57,4.47.54,12.84a33.36,33.36,0,0,0,3.85,9.28,4.24,4.24,0,0,0,2.39,2v-6.4l-.14-4.46s3.76-3.18,4.15-6.37a10.07,10.07,0,0,0-1.07-6.48Z" style="fill:#263238"></path><path d="M106.46,237.58c.73-3.58,5.49-7.77,14.49-8a16.2,16.2,0,0,1,7.21,1.35,7,7,0,0,0,6.61-.28c.61,1,0,2.25-.63,3.23a2.14,2.14,0,0,1,2.15,3.51,3.64,3.64,0,0,1-.36,5.95,5,5,0,0,0-.82.53c-.16.14-.28.32-.43.48-1.3,1.44-3.76.85-5.48.73l-5.83-.43-9.78-.72-1-.08Z" style="fill:#263238"></path><path d="M103.78,260.07c3.34,1.68,5-.9,5-.9l.82,14.53c5.36,4.62,10.8,10.39,20,21.09,1.34-11.78-2-20.9-3.91-22.74l0-3.25a20.55,20.55,0,0,0,2.94-.21c3-.4,5.51-1.86,6.48-5a34.64,34.64,0,0,0,1.07-6.21,23.44,23.44,0,0,0-.89-9c-.55-1.65.2-3.78-.21-5.81-.31-1.55-.94-3.26-2.38-4-3.55-1.82-6.93.61-12,2.41-2.1.74-7.13,1-8.45.34,1.71,1.92,1.54,7.89-1.1,10.26a5.32,5.32,0,0,1-1.33,1.61c-1.12.91-1.95-1.52-2.85-2.48a3.82,3.82,0,0,0-5.9,1.18A6,6,0,0,0,103.78,260.07Z" style="fill:#c8856a"></path><path d="M125.71,268.8a27.66,27.66,0,0,1-9.7-1.68c-2.29-1-4.27-4.13-4.87-7.19-.06,2.45.93,6.83,4.4,8.71s7.56,2.08,10.13,2.19Z" style="fill:#af6152"></path><path d="M112.74,249.12c-1,1.77,0,7.43,1.65,8.18s3.69-.33,7.49-1.31a14.07,14.07,0,0,1,8.09-.19c1.76.52,5.6,2,6.27,1.1.09,3.08-.44,10.07-5.78,11.79-3.37,1.09-10.59,1-14.77-1.24s-4.88-4.75-5.58-8.13a59.1,59.1,0,0,0-2-7Z" style="fill:#263238"></path><path d="M129.62,259.84c0-.16-.07-.31-.11-.46a3.6,3.6,0,0,0-.78-1.53,3.17,3.17,0,0,0-1.62-.87,5.2,5.2,0,0,0-4.87.83,4.2,4.2,0,0,0-1.41,3.19c0,.75.57,1,1.26,1.23a2.3,2.3,0,0,0,2.32-.38,1.21,1.21,0,0,1,1.54-.12,8.09,8.09,0,0,0,.74.57,2,2,0,0,0,1.13.08,2.68,2.68,0,0,0,1-.25,1.76,1.76,0,0,0,.82-1.24A3.09,3.09,0,0,0,129.62,259.84Z" style="fill:#c8856a"></path><path d="M123.34,257.89l3.86.79a1.94,1.94,0,0,1-2.31,1.56A2,2,0,0,1,123.34,257.89Z" style="fill:#af6152"></path><path d="M123.81,258.5a1.93,1.93,0,0,0-.48,0,2,2,0,0,0,1.56,1.73,1.73,1.73,0,0,0,.64,0A1.78,1.78,0,0,0,123.81,258.5Z" style="fill:#f28f8f"></path><path d="M121.78,245.4l-3.12,1.78a1.83,1.83,0,0,1,.69-2.48A1.77,1.77,0,0,1,121.78,245.4Z" style="fill:#263238"></path><path d="M133.57,246.08l-3.34-1.39a1.76,1.76,0,0,1,2.33-1A1.86,1.86,0,0,1,133.57,246.08Z" style="fill:#263238"></path><path d="M119.62,249.4a1.47,1.47,0,0,0,2.94,0,1.47,1.47,0,0,0-2.94,0Z" style="fill:#263238"></path><path d="M130.23,248.56a1.47,1.47,0,1,0,1.45-1.45A1.45,1.45,0,0,0,130.23,248.56Z" style="fill:#263238"></path><path d="M125.19,246.08l1,9.18,5-1.68A21.36,21.36,0,0,0,125.19,246.08Z" style="fill:#af6152"></path></g><path d="M115.67,348.65c.77-.23,1.53-.49,2.3-.74a58.59,58.59,0,0,0,5.84-2.18c1.18-.52,2.35-1.1,3.48-1.73a21.8,21.8,0,0,0,3-1.82c1.84-1.47,3.62-3,5.38-4.6s4.37-2.61,6.45-3.52c4.89-2.14,9.39-3.66,14.12-6.13,3.77-2,6.68-3.57,7.87-5.86s-2.45-12.2-3.1-14.24c-1.22-3.78-16.44.6-16.44.6a66.61,66.61,0,0,0,1.34,7.48,47.4,47.4,0,0,1-5.35,4.71c-2.93,2.22-5.13,4-8.21,6a13.56,13.56,0,0,1-4.39,1.64c-1.46.28-2.83.26-4.26.5a33.89,33.89,0,0,0-5.48,1c-3,1-5.74,3-7.68,4s-1.42,2.05.4,2.37a5.74,5.74,0,0,0,2.66-.51c1-.33,1.9-.73,2.88-1,.23-.06.66-.25.86,0s0,.58-.19.75a9.17,9.17,0,0,1-3.69,1.7l-4.26,1.43c-.56.19-1.13.38-1.68.6-.78.33-1.56.72-1.75,1.62a1.4,1.4,0,0,0,0,.81c.09.21.26.35.07.6a1.8,1.8,0,0,1-.58.39,1.61,1.61,0,0,0-.2,2.62,2.34,2.34,0,0,0,1.05.44,1.67,1.67,0,0,1,.55.16,1.77,1.77,0,0,1,.33.34,2.56,2.56,0,0,0,1,.7,4.39,4.39,0,0,0,2.22.11c.63-.1,1.25-.24,1.87-.37.84-.19,1.7-.34,2.54-.52.37-.07.73-.15,1.1-.24l.54-.12a1.64,1.64,0,0,1,.53-.09c-.07.13-.49.23-.63.28l-.74.31a14.53,14.53,0,0,0-1.38.66,3.21,3.21,0,0,0-.84.62A1.28,1.28,0,0,0,113,349a.74.74,0,0,0,.68.18,5.09,5.09,0,0,0,.66-.12C114.8,348.91,115.24,348.78,115.67,348.65Z" style="fill:#c8856a"></path><path d="M119.28,339.42c-3.36.77-6.61,1.88-10,2.46-1.06.1-2.37.53-3.29-.17C108.24,343.65,116.63,340.45,119.28,339.42Zm-12.7,6.16a37.39,37.39,0,0,0,13.33-3.26C115.43,343.37,111.15,345,106.58,345.58Z" style="fill:#af6152"></path><path d="M145.93,315.91c1.61-2.2,5.84-4.55,8.54-4.6a15.38,15.38,0,0,0-9.07,2.25Z" style="fill:#af6152"></path><g id="freepik--arm--inject-2"><path d="M130,299.81c2.55-2.36,3.86-3.3,5.11-3.81s5.58-2.87,7.27-3.48c1.07-.39,1.7,1.31.43,2.66-1,1.05-3.66,2.56-4.82,3.37s-3.27,4-3.27,4Z" style="fill:#af6152"></path><path d="M108.54,329.73c5.17-3.22,12.11-7.7,16.79-9.85a27.82,27.82,0,0,1,4.91-1.5c4-1.4,3.69-5.79,6.56-8.33l1.43-.24s-.37,1.1.67,1.13a3.32,3.32,0,0,0,2.73-.78c.83-.93,1.91-4.46,1-5.35a1.13,1.13,0,0,0-.7-.31,4.78,4.78,0,0,0-.21-1.32c-.37-1.65-1.88-1.46-2.91-1.47a1.75,1.75,0,0,0-.9-1.41c-.86-.43-1.74-.66-5.61-.83-1.19-.05-2.36-.22-4.42,2.22-1.51,1.8-6,7.74-7.7,9.14-1,.81-18.33,4.78-18.33,4.78s1.11-9.61,2.09-17.35-.82-18.78-5.12-21.78c0,0-6.13,1.17-8.6,6.64s-4.34,10.58-5.25,23.39-1.55,19.24-.21,25c1.13,4.82,3.86,6.91,10,4.8A54.26,54.26,0,0,0,108.54,329.73Z" style="fill:#c8856a"></path><path d="M102,313.6l-.17,1.84c-6.51,1.53-9.58,5.35-10.29,7.59C92.63,317.78,94.76,315.51,102,313.6Z" style="fill:#af6152"></path><path d="M102.53,312.12l1.7-13.9s2.22-18.11-5.36-22.65a37.54,37.54,0,0,0-4.37,1.78c-3.18,1.55-4.82,3.35-6.78,7.86-1.57,3.62-3.13,22.35-3.34,26.75C90.41,313.54,96.73,313.93,102.53,312.12Z" style="fill:#3F3F3F"></path><path d="M138.78,301.71l-4.63-.44,4.47-.18A1.72,1.72,0,0,1,138.78,301.71Z" style="fill:#af6152"></path><path d="M141.9,304.5l-5.29-.12,5.23-.48A2.84,2.84,0,0,1,141.9,304.5Z" style="fill:#af6152"></path><path d="M140.74,307.44a4.93,4.93,0,0,1-.67.27,17.25,17.25,0,0,1-1.81.32,2.08,2.08,0,0,1-.54,1.07,11.05,11.05,0,0,1-.92.95l1.43-.24a2.28,2.28,0,0,1,1.39-1,1,1,0,0,1,.71.05,1.62,1.62,0,0,1,.59.52,1.41,1.41,0,0,0-.52-.64,1.13,1.13,0,0,0-.57-.15l.23-.67a3.11,3.11,0,0,0,.76-.36,1.68,1.68,0,0,0,.63-.69A2,2,0,0,1,140.74,307.44Z" style="fill:#af6152"></path></g></g></g></g><g id="freepik--speech-bubble--inject-2"><g id="freepik--speech-bubble--inject-2"><path d="M168.67,161.94c-4.09-5.95-15-10.88-28.53-11-12.29-.12-27.24,3.5-31,15.3C106,176.3,115.78,185.66,126,187.65a69.16,69.16,0,0,0,12.29,1.3c1.89,3.53,6.32,5.7,9.66,5.93a9.79,9.79,0,0,1-2.21-6.21,63.76,63.76,0,0,0,9.44-1.59C172.85,182.65,173.24,168.6,168.67,161.94Z" style="fill:#3F3F3F"></path><path d="M168.67,161.94c-4.09-5.95-15-10.88-28.53-11-12.29-.12-27.24,3.5-31,15.3C106,176.3,115.78,185.66,126,187.65a69.16,69.16,0,0,0,12.29,1.3c1.89,3.53,6.32,5.7,9.66,5.93a9.79,9.79,0,0,1-2.21-6.21,63.76,63.76,0,0,0,9.44-1.59C172.85,182.65,173.24,168.6,168.67,161.94Z" style="fill:#fff;opacity:0.6000000000000001"></path><path d="M122.65,166.17a3.67,3.67,0,1,0,3.67,3.67A3.66,3.66,0,0,0,122.65,166.17Zm17.19,0a3.67,3.67,0,1,0,3.67,3.67A3.67,3.67,0,0,0,139.84,166.17Zm17.18,0a3.67,3.67,0,1,0,3.67,3.67A3.67,3.67,0,0,0,157,166.17Z" style="fill:#fff"></path></g></g></svg>
